<svg xmlns="http://www.w3.org/2000/svg" width="40" height="40" fill="none"><path fill="#fff" d="M40 32.5h-1.667v-26H40v26Z"/><path fill="#fff" fill-rule="evenodd" d="M7.66 14.487c2.75 0 4.418 1.437 4.418 3.655V26h-1.624v-1.395h-.044c-.65 1.056-2.123 1.712-3.92 1.712-2.428 0-3.945-1.29-3.945-3.338 0-1.944 1.41-2.978 4.703-3.506 2.21-.36 3.055-.825 3.055-1.712 0-1.035-.954-1.774-2.644-1.774-1.798 0-3.076.993-3.336 2.556l-1.647-.254c.281-2.281 2.297-3.802 4.983-3.802Zm2.664 5.218c-.282.507-1.17.866-2.709 1.14-2.404.423-3.357 1.056-3.357 2.134 0 1.225.779 1.753 2.555 1.753 1.842 0 3.555-1.288 3.555-2.661v-2.366h-.044Zm6.162-3.592h.044c.866-.971 2.274-1.626 3.92-1.626 3.12 0 5.396 2.408 5.396 5.914 0 3.507-2.101 5.916-5.524 5.916-1.538 0-2.99-.655-3.857-1.648h-.044V26h-1.625V10.578h1.69v5.535Zm3.878-.084c-2.166 0-3.878 1.585-3.878 3.317v2.092c0 1.753 1.69 3.337 3.748 3.337 2.492 0 3.923-1.712 3.923-4.374 0-2.661-1.54-4.372-3.793-4.372Z" clip-rule="evenodd"/><path fill="#fff" d="M32.549 14.487c2.686 0 4.788 1.648 5.221 4.077l-1.647.338c-.303-1.732-1.711-2.873-3.574-2.873-2.297 0-3.923 1.817-3.923 4.372 0 2.556 1.626 4.374 3.923 4.374 1.863 0 3.27-1.141 3.574-2.895l1.647.359c-.433 2.43-2.535 4.078-5.221 4.078-3.272 0-5.612-2.472-5.612-5.916 0-3.464 2.34-5.914 5.612-5.914Z"/></svg>