<svg xmlns="http://www.w3.org/2000/svg" width="40" height="40" fill="none"><path fill="#fff" fill-rule="evenodd" d="M14.666 13.333a2.667 2.667 0 1 1 0 5.334 2.667 2.667 0 0 1 0-5.334Zm0 1.334a1.333 1.333 0 1 0 0 2.666 1.333 1.333 0 0 0 0-2.666Z" clip-rule="evenodd"/><path fill="#fff" fill-rule="evenodd" d="M29.333 28H8V9.333h21.333V28Zm-12.666-3.057-3.334-3.334-4 4v1.058H28v-3.724l-4.667-4.667-6.666 6.667Zm-7.334-1.219 4-4 3.333 3.333 6.667-6.666L28 21.057v-10.39H9.333v13.057Z" clip-rule="evenodd"/><path fill="#fff" d="M24 8h-1.334V5.333H4v16h2.667v1.334h-4V4H24v4Z"/></svg>