<svg xmlns="http://www.w3.org/2000/svg" width="201" height="500" fill="none"><g clip-path="url(#a)"><mask id="f" width="201" height="500" x="0" y="0" fill="#000" maskUnits="userSpaceOnUse"><path fill="#fff" d="M0 0h201v500H0z"/><path d="M1 8.571A8.571 8.571 0 0 1 9.571 0H192.43A8.572 8.572 0 0 1 201 8.571V491.43a8.572 8.572 0 0 1-8.571 8.571H9.571A8.572 8.572 0 0 1 1 491.429V8.571Z"/></mask><path fill="#fff" d="M1 8.571A8.571 8.571 0 0 1 9.571 0H192.43A8.572 8.572 0 0 1 201 8.571V491.43a8.572 8.572 0 0 1-8.571 8.571H9.571A8.572 8.572 0 0 1 1 491.429V8.571Z"/><g clip-path="url(#b)"><mask id="c" fill="#fff"><path d="M1 0h200v24.429H1V0Z"/></mask><path fill="#0F0F0F" d="M15.549 17.571h-.771v-5.775h-2.024v-.725h4.819v.725h-2.024v5.775Zm3.881.14c-1.393 0-2.312-1.05-2.312-2.6 0-1.551.92-2.6 2.312-2.6 1.393 0 2.321 1.049 2.321 2.6 0 1.55-.928 2.6-2.321 2.6Zm0-.678c.975 0 1.597-.752 1.597-1.922s-.622-1.922-1.597-1.922-1.588.752-1.588 1.922.613 1.922 1.588 1.922Zm5.386.678c-1.392 0-2.312-1.05-2.312-2.6 0-1.551.92-2.6 2.312-2.6 1.393 0 2.322 1.049 2.322 2.6 0 1.55-.929 2.6-2.322 2.6Zm0-.678c.975 0 1.598-.752 1.598-1.922s-.623-1.922-1.598-1.922c-.975 0-1.587.752-1.587 1.922s.612 1.922 1.587 1.922Zm4.075.538h-.724v-6.778h.724v6.778Zm3.12.14c-1.272 0-2.07-.66-2.182-1.82l.706-.13c.148.9.576 1.272 1.476 1.272.669 0 1.087-.334 1.087-.78 0-.39-.297-.604-1.356-.92-1.235-.37-1.68-.724-1.68-1.41 0-.78.714-1.412 1.67-1.412 1.031 0 1.765.566 1.95 1.467l-.705.158c-.167-.622-.576-.947-1.244-.947-.548 0-.947.325-.947.705 0 .344.297.52 1.197.799 1.375.427 1.848.817 1.848 1.56 0 .845-.724 1.458-1.82 1.458Z"/><path fill="#0F0F0F" fill-opacity=".5" d="M54.174 17.571h-.789l-.455-1.309h-2.925l-.455 1.31h-.79l2.332-6.5h.752l2.33 6.5Zm-2.711-5.45-1.217 3.473h2.452L51.48 12.12h-.018Zm5.202 5.59c-1.29 0-2.2-1.059-2.2-2.6 0-1.542.91-2.6 2.21-2.6.612 0 1.132.269 1.448.659h.019v-2.377h.724v6.778h-.697v-.492h-.018c-.325.4-.873.632-1.486.632Zm.056-.678c.78 0 1.42-.64 1.42-1.449v-.956c0-.799-.64-1.44-1.466-1.44-.883 0-1.486.762-1.486 1.923 0 1.16.603 1.922 1.532 1.922Zm4.243-5.247h-.836v-.807h.836v.807Zm-1.142 7.401h-.437v-.678h.4c.269 0 .408-.12.408-.362V12.65h.724v5.534c0 .715-.343 1.003-1.095 1.003Zm4-1.476c-1.096 0-1.737-.678-1.737-1.867V12.65h.724v3.092c0 .873.39 1.29 1.226 1.29.752 0 1.235-.52 1.235-1.29V12.65h.724v4.921h-.706v-.455h-.018c-.306.363-.854.595-1.449.595Zm5.3 0c-1.272 0-2.07-.66-2.182-1.82l.706-.13c.148.9.575 1.272 1.476 1.272.669 0 1.087-.334 1.087-.78 0-.39-.298-.604-1.356-.92-1.235-.37-1.68-.724-1.68-1.41 0-.78.714-1.412 1.67-1.412 1.031 0 1.765.566 1.95 1.467l-.705.158c-.167-.622-.576-.947-1.244-.947-.548 0-.948.325-.948.705 0 .344.297.52 1.198.799 1.375.427 1.848.817 1.848 1.56 0 .845-.724 1.458-1.82 1.458Zm4.823-5.061v.65h-1.207v3.148c0 .316.13.446.539.446h.408v.677h-.464c-.891 0-1.207-.297-1.207-1.132V13.3h-.743v-.65h.743v-1.114h.724v1.114h1.207Zm1.615 4.921h-.724V12.65h.715v.38h.018c.26-.324.734-.52 1.198-.52.557 0 1.04.26 1.29.632h.02c.334-.4.817-.631 1.374-.631.938 0 1.718.622 1.718 1.634v3.426h-.725v-3.333c0-.632-.427-1.05-1.04-1.05-.64 0-1.058.456-1.058 1.115v3.268h-.697v-3.333c0-.632-.436-1.05-1.04-1.05-.64 0-1.049.456-1.049 1.124v3.26Zm8.873.14c-1.365 0-2.275-1.05-2.275-2.6 0-1.551.92-2.6 2.275-2.6 1.328 0 2.201.984 2.201 2.442v.371h-3.742c.019.938.613 1.727 1.523 1.727.696 0 1.086-.26 1.504-.984l.604.362c-.427.845-1.142 1.282-2.09 1.282Zm-1.523-2.972h2.99c-.027-.882-.594-1.569-1.467-1.569-.854 0-1.504.743-1.523 1.57Zm5.481 2.832h-.724V12.65h.706v.455h.018c.297-.353.855-.594 1.384-.594 1.142 0 1.866.733 1.866 1.875v3.185h-.724V14.48c0-.798-.464-1.29-1.226-1.29-.78 0-1.3.529-1.3 1.29v3.092Zm6.583-4.921v.65h-1.207v3.148c0 .316.13.446.539.446h.408v.677h-.464c-.891 0-1.207-.297-1.207-1.132V13.3H92.3v-.65h.743v-1.114h.724v1.114h1.207Zm2.613 5.06c-1.272 0-2.07-.659-2.182-1.82l.705-.13c.149.901.576 1.273 1.477 1.273.668 0 1.086-.334 1.086-.78 0-.39-.297-.604-1.356-.92-1.234-.37-1.68-.724-1.68-1.41 0-.78.715-1.412 1.671-1.412 1.031 0 1.764.566 1.95 1.467l-.706.158c-.167-.622-.575-.947-1.244-.947-.548 0-.947.325-.947.705 0 .344.297.52 1.198.799 1.374.427 1.848.817 1.848 1.56 0 .845-.724 1.458-1.82 1.458Zm18.973-.139h-.761v-6.5h2.507c1.374 0 2.173.771 2.173 2.006 0 1.244-.799 1.987-2.173 1.987h-1.746v2.507Zm0-5.775v2.544h1.699c.985 0 1.449-.4 1.449-1.263 0-.863-.474-1.281-1.449-1.281h-1.699Zm5.49 5.775h-.724V12.65h.687v.409h.018c.186-.307.548-.493 1.022-.493.176 0 .325.028.492.075l-.158.752a1.51 1.51 0 0 0-.483-.084c-.566 0-.854.381-.854 1.31v2.952Zm4.141.14c-1.393 0-2.312-1.05-2.312-2.6 0-1.551.919-2.6 2.312-2.6 1.393 0 2.321 1.049 2.321 2.6 0 1.55-.928 2.6-2.321 2.6Zm0-.678c.975 0 1.597-.752 1.597-1.922s-.622-1.922-1.597-1.922-1.588.752-1.588 1.922.613 1.922 1.588 1.922Zm4.075 2.628h-.725V12.65h.725v.52h.018c.316-.39.836-.66 1.44-.66 1.3 0 2.219 1.06 2.219 2.6 0 1.542-.919 2.6-2.201 2.6-.613 0-1.151-.26-1.458-.63h-.018v2.58Zm1.42-2.628c.929 0 1.533-.762 1.533-1.922 0-1.161-.604-1.922-1.495-1.922-.818 0-1.458.64-1.458 1.439v.956c0 .808.64 1.449 1.42 1.449Zm5.295.678c-1.365 0-2.275-1.05-2.275-2.6 0-1.551.919-2.6 2.275-2.6 1.328 0 2.201.984 2.201 2.442v.371h-3.743c.019.938.613 1.727 1.523 1.727.697 0 1.087-.26 1.505-.984l.603.362c-.427.845-1.142 1.282-2.089 1.282Zm-1.523-2.972h2.99c-.028-.882-.594-1.569-1.467-1.569-.854 0-1.504.743-1.523 1.57Zm5.481 2.832h-.724V12.65h.687v.409h.018c.186-.307.548-.493 1.022-.493.176 0 .325.028.492.075l-.158.752a1.51 1.51 0 0 0-.483-.084c-.566 0-.854.381-.854 1.31v2.952Zm4.542-4.921v.65h-1.207v3.148c0 .316.13.446.539.446h.408v.677h-.464c-.891 0-1.207-.297-1.207-1.132V13.3h-.743v-.65h.743v-1.114h.724v1.114h1.207Zm1.661-.864h-.835v-.807h.835v.807Zm-.046 5.785h-.724V12.65h.724v4.921Zm3.306.14c-1.365 0-2.275-1.05-2.275-2.6 0-1.551.919-2.6 2.275-2.6 1.327 0 2.2.984 2.2 2.442v.371h-3.742c.019.938.613 1.727 1.523 1.727.696 0 1.086-.26 1.504-.984l.604.362c-.427.845-1.142 1.282-2.089 1.282Zm-1.523-2.972h2.99c-.028-.882-.595-1.569-1.467-1.569-.855 0-1.505.743-1.523 1.57Zm6.569 2.972c-1.272 0-2.071-.66-2.182-1.82l.706-.13c.148.9.575 1.272 1.476 1.272.669 0 1.087-.334 1.087-.78 0-.39-.298-.604-1.356-.92-1.235-.37-1.681-.724-1.681-1.41 0-.78.715-1.412 1.672-1.412 1.03 0 1.764.566 1.95 1.467l-.706.158c-.167-.622-.576-.947-1.244-.947-.548 0-.948.325-.948.705 0 .344.298.52 1.198.799 1.375.427 1.848.817 1.848 1.56 0 .845-.724 1.458-1.82 1.458Z"/></g><path fill="#0F0F0F" fill-opacity=".1" d="M1 0v.714h200V-.714H1V0Z" mask="url(#c)"/><path fill="#0F0F0F" fill-opacity=".05" d="M9.571 42.143c0-6.627 5.373-12 12-12h158.857c6.628 0 12 5.373 12 12v160.571c0 6.628-5.372 12-12 12H21.571c-6.627 0-12-5.372-12-12V42.143Z"/><path fill="#FF3C00" fill-rule="evenodd" d="m21.147 48.147 7.5-7.5.505.505-7.247 7.248.923.923 7.248-7.247.505.505-7.5 7.5-.049.048-.063.028-2.5 1.071-.82.352.351-.821 1.072-2.5.027-.063.048-.049Zm-.139 2.073.512-1.195.683.683-1.195.512Zm9.32 2.108H17.471v.715h12.857v-.715Z" clip-rule="evenodd"/><path fill="#0F0F0F" d="M33.989 49.786h-.762v-6.5h2.507c1.375 0 2.173.77 2.173 2.005 0 1.245-.798 1.988-2.173 1.988H33.99v2.507Zm0-5.776v2.544h1.699c.984 0 1.449-.399 1.449-1.263 0-.863-.474-1.281-1.449-1.281h-1.7Zm5.49 5.776h-.724v-4.922h.687v.409h.018c.186-.307.548-.492 1.022-.492.176 0 .325.028.492.074l-.158.752a1.51 1.51 0 0 0-.483-.083c-.566 0-.854.38-.854 1.309v2.953Zm4.14.139c-1.392 0-2.312-1.05-2.312-2.6s.92-2.6 2.312-2.6c1.393 0 2.322 1.05 2.322 2.6s-.929 2.6-2.322 2.6Zm0-.678c.975 0 1.598-.752 1.598-1.922s-.623-1.922-1.598-1.922c-.975 0-1.587.752-1.587 1.922s.612 1.922 1.587 1.922Zm4.075.539h-.724v-4.922h.715v.381h.019c.26-.325.733-.52 1.198-.52.557 0 1.04.26 1.29.631h.019a1.757 1.757 0 0 1 1.374-.631c.938 0 1.718.622 1.718 1.634v3.427h-.724v-3.334c0-.631-.427-1.05-1.04-1.05-.641 0-1.059.456-1.059 1.115v3.269h-.696v-3.334c0-.631-.437-1.05-1.04-1.05-.641 0-1.05.456-1.05 1.124v3.26Zm7.509 2.089h-.725v-7.01h.725v.52h.018c.316-.39.836-.66 1.44-.66 1.3 0 2.219 1.059 2.219 2.6 0 1.541-.92 2.6-2.2 2.6-.614 0-1.152-.26-1.459-.631h-.018v2.581Zm1.42-2.628c.93 0 1.533-.761 1.533-1.922 0-1.16-.604-1.922-1.495-1.922-.818 0-1.458.64-1.458 1.44v.956c0 .807.64 1.448 1.42 1.448Zm5.453-4.383v.65h-1.207v3.148c0 .316.13.446.538.446h.409v.678h-.465c-.89 0-1.207-.297-1.207-1.133v-3.139h-.742v-.65h.742V43.75h.725v1.114h1.207Z"/><path fill="#FF3C00" d="M159.705 47.093v.018l1.43 2.675h-.901l-1.374-2.637h-1.3v2.637h-.761v-6.5h2.367c1.356 0 2.164.724 2.164 1.922 0 1.03-.604 1.718-1.625 1.885Zm-2.145-3.083v2.414h1.541c.957 0 1.458-.417 1.458-1.216 0-.79-.492-1.198-1.458-1.198h-1.541Zm6.619 5.915c-1.365 0-2.275-1.05-2.275-2.6s.92-2.6 2.275-2.6c1.328 0 2.201.984 2.201 2.442v.372h-3.742c.018.938.613 1.727 1.523 1.727.696 0 1.086-.26 1.504-.984l.604.362c-.428.845-1.143 1.281-2.09 1.281Zm-1.523-2.971h2.99c-.027-.883-.594-1.57-1.467-1.57-.854 0-1.504.743-1.523 1.57Zm5.481 2.832h-.724v-4.922h.715v.381h.019c.26-.325.733-.52 1.197-.52.558 0 1.04.26 1.291.631h.019c.334-.399.817-.63 1.374-.63.938 0 1.718.621 1.718 1.633v3.427h-.724v-3.334c0-.631-.428-1.05-1.04-1.05-.641 0-1.059.456-1.059 1.115v3.269h-.696v-3.334c0-.631-.437-1.05-1.04-1.05-.641 0-1.05.456-1.05 1.124v3.26ZM175.692 44h-.836v-.808h.836V44Zm-.046 5.785h-.725v-4.922h.725v4.922Zm1.504 0h-.855l1.69-2.507-1.634-2.415h.854l1.208 1.848h.018l1.217-1.848h.854l-1.644 2.415 1.7 2.507h-.855l-1.272-1.94h-.018l-1.263 1.94Z"/><path fill="#0F0F0F" d="M22.56 73.429h-.762v-6.5h3.91v.724H22.56v2.321h2.887v.687H22.56v2.768Zm5.984.139c-1.365 0-2.275-1.05-2.275-2.6s.92-2.6 2.275-2.6c1.328 0 2.2.984 2.2 2.442v.371h-3.741c.018.938.612 1.728 1.522 1.728.697 0 1.087-.26 1.505-.985l.603.362c-.427.845-1.142 1.282-2.089 1.282Zm-1.523-2.972h2.99c-.028-.882-.594-1.569-1.467-1.569-.854 0-1.504.743-1.523 1.57Zm5.481 2.833h-.724v-4.922h.715v.38h.018c.26-.324.734-.52 1.198-.52.557 0 1.04.26 1.29.632h.02a1.757 1.757 0 0 1 1.374-.631c.938 0 1.718.622 1.718 1.634v3.427h-.725v-3.334c0-.631-.427-1.05-1.04-1.05-.64 0-1.058.456-1.058 1.115v3.269h-.697v-3.334c0-.631-.436-1.05-1.04-1.05-.64 0-1.049.456-1.049 1.124v3.26Zm8.214.139c-.994 0-1.616-.539-1.616-1.393 0-.836.492-1.263 1.727-1.56.948-.232 1.254-.436 1.254-.836 0-.455-.4-.752-1.012-.752-.65 0-1.105.4-1.235 1.059l-.734-.14c.167-.965.938-1.578 1.969-1.578 1.105 0 1.773.613 1.773 1.597v3.464h-.677v-.52h-.019c-.297.408-.836.659-1.43.659Zm.056-.678c.79 0 1.346-.474 1.346-1.124v-1.105H42.1c-.102.242-.418.409-1.078.576-.863.223-1.197.464-1.197.892 0 .492.334.761.947.761Zm3.972.539h-.724V66.65h.724v6.779Zm3.306.139c-1.365 0-2.275-1.05-2.275-2.6s.919-2.6 2.275-2.6c1.327 0 2.2.984 2.2 2.442v.371h-3.742c.019.938.613 1.728 1.523 1.728.696 0 1.086-.26 1.504-.985l.604.362c-.427.845-1.142 1.282-2.09 1.282Zm-1.523-2.972h2.99c-.028-.882-.595-1.569-1.468-1.569-.854 0-1.504.743-1.522 1.57Zm7.983 2.833h-.724v-4.922h.715v.38h.019c.26-.324.733-.52 1.197-.52.558 0 1.04.26 1.291.632h.019a1.757 1.757 0 0 1 1.374-.631c.938 0 1.718.622 1.718 1.634v3.427h-.724v-3.334c0-.631-.428-1.05-1.04-1.05-.641 0-1.06.456-1.06 1.115v3.269H56.6v-3.334c0-.631-.436-1.05-1.04-1.05-.64 0-1.049.456-1.049 1.124v3.26Zm8.91.139c-1.392 0-2.311-1.05-2.311-2.6s.919-2.6 2.312-2.6c1.393 0 2.321 1.05 2.321 2.6s-.928 2.6-2.321 2.6Zm0-.678c.976 0 1.598-.752 1.598-1.922s-.622-1.922-1.597-1.922-1.588.752-1.588 1.922.613 1.922 1.588 1.922Zm5.276.678c-1.291 0-2.201-1.059-2.201-2.6 0-1.542.91-2.6 2.21-2.6.613 0 1.133.27 1.449.66h.018V66.65h.724v6.779H70.2v-.493h-.019c-.325.4-.872.632-1.485.632Zm.055-.678c.78 0 1.421-.64 1.421-1.449v-.956c0-.799-.64-1.44-1.467-1.44-.882 0-1.486.762-1.486 1.923 0 1.16.604 1.922 1.532 1.922Zm5.46.678c-1.365 0-2.275-1.05-2.275-2.6s.92-2.6 2.275-2.6c1.328 0 2.2.984 2.2 2.442v.371H72.67c.019.938.613 1.728 1.523 1.728.697 0 1.087-.26 1.505-.985l.603.362c-.427.845-1.142 1.282-2.09 1.282Zm-1.523-2.972h2.99c-.028-.882-.594-1.569-1.467-1.569-.854 0-1.504.743-1.523 1.57Zm5.48 2.833h-.724V66.65h.725v6.779Zm4.444 2.089h-.724v-7.01h.724v.52h.019c.316-.39.835-.66 1.439-.66 1.3 0 2.22 1.058 2.22 2.6 0 1.541-.92 2.6-2.201 2.6-.613 0-1.152-.26-1.458-.632h-.019v2.582Zm1.42-2.628c.93 0 1.533-.761 1.533-1.922 0-1.16-.603-1.922-1.495-1.922-.817 0-1.458.64-1.458 1.439v.956c0 .808.64 1.449 1.42 1.449Zm5.333.678c-1.393 0-2.313-1.05-2.313-2.6s.92-2.6 2.313-2.6c1.392 0 2.32 1.05 2.32 2.6s-.928 2.6-2.32 2.6Zm0-.678c.975 0 1.597-.752 1.597-1.922s-.623-1.922-1.597-1.922c-.975 0-1.588.752-1.588 1.922s.612 1.922 1.588 1.922Zm5.163.678c-1.272 0-2.07-.66-2.182-1.82l.706-.13c.148.9.575 1.272 1.476 1.272.669 0 1.087-.334 1.087-.78 0-.39-.298-.604-1.356-.92-1.235-.37-1.68-.724-1.68-1.41 0-.78.714-1.412 1.67-1.412 1.031 0 1.765.566 1.95 1.467l-.705.158c-.167-.622-.576-.947-1.245-.947-.547 0-.947.325-.947.705 0 .344.297.52 1.198.799 1.374.427 1.848.817 1.848 1.56 0 .845-.724 1.458-1.82 1.458Zm4.847 0c-1.365 0-2.275-1.05-2.275-2.6s.92-2.6 2.275-2.6c1.328 0 2.2.984 2.2 2.442v.371h-3.742c.019.938.613 1.728 1.523 1.728.697 0 1.087-.26 1.504-.985l.604.362c-.427.845-1.142 1.282-2.09 1.282Zm-1.523-2.972h2.99c-.028-.882-.594-1.569-1.467-1.569-.855 0-1.504.743-1.523 1.57Zm6.569 2.972c-1.272 0-2.07-.66-2.182-1.82l.706-.13c.148.9.576 1.272 1.476 1.272.669 0 1.087-.334 1.087-.78 0-.39-.297-.604-1.356-.92-1.235-.37-1.681-.724-1.681-1.41 0-.78.715-1.412 1.672-1.412 1.03 0 1.764.566 1.95 1.467l-.706.158c-.167-.622-.576-.947-1.244-.947-.548 0-.947.325-.947.705 0 .344.297.52 1.197.799 1.375.427 1.848.817 1.848 1.56 0 .845-.724 1.458-1.82 1.458Zm7.069 0c-1.347 0-2.275-1.05-2.275-2.6s.928-2.6 2.275-2.6c1.133 0 1.959.696 2.145 1.792l-.706.149c-.139-.808-.669-1.263-1.439-1.263-.929 0-1.551.761-1.551 1.922 0 1.16.622 1.922 1.551 1.922.77 0 1.3-.455 1.439-1.263l.706.149c-.186 1.095-1.012 1.792-2.145 1.792Zm5.178 0c-1.392 0-2.312-1.05-2.312-2.6s.92-2.6 2.312-2.6c1.393 0 2.322 1.05 2.322 2.6s-.929 2.6-2.322 2.6Zm0-.678c.975 0 1.598-.752 1.598-1.922s-.623-1.922-1.598-1.922c-.975 0-1.587.752-1.587 1.922s.612 1.922 1.587 1.922Zm4.075.539h-.724v-4.922h.706v.455h.018c.298-.353.855-.594 1.384-.594 1.142 0 1.866.733 1.866 1.876v3.185h-.724v-3.093c0-.798-.464-1.29-1.226-1.29-.78 0-1.3.529-1.3 1.29v3.093Zm7.208-5.785v-.808h.835v.808h-.835Zm-1.82.427v.436h2.627v4.922h-.724v-4.272h-1.903v4.272h-.725v-4.272h-.845v-.65h.845v-.538c0-.632.409-1.04 1.105-1.04h.725v.677h-.641c-.316 0-.464.149-.464.465Zm5.842 5.497c-1.291 0-2.201-1.059-2.201-2.6 0-1.542.91-2.6 2.21-2.6.613 0 1.133.27 1.449.66h.018V66.65h.725v6.779h-.697v-.493h-.018c-.325.4-.873.632-1.486.632Zm.056-.678c.78 0 1.42-.64 1.42-1.449v-.956c0-.799-.64-1.44-1.467-1.44-.882 0-1.486.762-1.486 1.923 0 1.16.604 1.922 1.533 1.922Zm5.459.678c-1.365 0-2.275-1.05-2.275-2.6s.919-2.6 2.275-2.6c1.328 0 2.201.984 2.201 2.442v.371h-3.743c.019.938.613 1.728 1.523 1.728.697 0 1.087-.26 1.505-.985l.603.362c-.427.845-1.142 1.282-2.089 1.282Zm-1.523-2.972h2.99c-.028-.882-.594-1.569-1.467-1.569-.854 0-1.504.743-1.523 1.57Zm5.481 2.833h-.724v-4.922h.705v.455h.019c.297-.353.854-.594 1.383-.594 1.143 0 1.867.733 1.867 1.876v3.185h-.724v-3.093c0-.798-.465-1.29-1.226-1.29-.78 0-1.3.529-1.3 1.29v3.093Zm6.583-4.922v.65h-1.207v3.148c0 .316.13.446.538.446h.409v.678h-.465c-.891 0-1.207-.298-1.207-1.133v-3.139h-.743v-.65h.743v-1.114h.725v1.114h1.207Zm1.614 4.922h-.724V66.65h.724v6.779Zm2.303 2.089h-.752l1.059-2.489-1.913-4.522h.78l1.495 3.668h.018l1.495-3.668h.771l-2.953 7.01Zm2.829-1.124v-.408c.306-.056.436-.214.436-.557h-.483v-1.05h1.133v.91c0 .678-.381 1.068-1.086 1.105ZM23.098 86.43h-.687l-1.18-4.922h.716l.891 3.826h.019l1.318-3.826h.66l1.318 3.826h.019l.891-3.826h.715l-1.18 4.922h-.686l-1.393-4.021H24.5l-1.402 4.02Zm7.432.139c-1.365 0-2.275-1.05-2.275-2.6s.92-2.6 2.275-2.6c1.328 0 2.2.984 2.2 2.442v.371h-3.74c.018.938.612 1.728 1.522 1.728.697 0 1.087-.26 1.505-.985l.603.362c-.427.845-1.142 1.282-2.09 1.282Zm-1.523-2.972h2.99c-.028-.882-.594-1.569-1.467-1.569-.854 0-1.504.743-1.523 1.57Zm6.096 2.972c-.994 0-1.616-.539-1.616-1.393 0-.836.492-1.263 1.727-1.56.947-.232 1.254-.436 1.254-.836 0-.455-.4-.752-1.012-.752-.65 0-1.105.4-1.235 1.059l-.734-.14c.167-.965.938-1.578 1.969-1.578 1.105 0 1.773.613 1.773 1.597v3.464h-.678v-.52h-.018c-.297.408-.836.659-1.43.659Zm.056-.678c.789 0 1.346-.474 1.346-1.124v-1.105h-.019c-.102.242-.417.409-1.077.576-.863.223-1.197.464-1.197.892 0 .492.334.761.947.761Zm3.972.539h-.724v-4.922h.687v.409h.018c.186-.307.548-.492 1.022-.492.176 0 .325.027.492.074l-.158.752a1.51 1.51 0 0 0-.483-.084c-.566 0-.854.381-.854 1.31v2.953Zm3.066-5.785h-.836v-.808h.836v.808Zm-.047 5.785h-.724v-4.922h.724v4.922Zm1.941 0h-.724v-4.922h.705v.455h.019c.297-.353.854-.594 1.384-.594 1.142 0 1.866.733 1.866 1.876v3.185h-.724v-3.093c0-.798-.465-1.29-1.226-1.29-.78 0-1.3.529-1.3 1.29v3.093Zm6.646 2.228c-.948 0-1.69-.501-1.997-1.346l.66-.297c.297.696.668.975 1.337.975.798 0 1.272-.558 1.272-1.458v-.622h-.019c-.288.427-.808.659-1.458.659-1.3 0-2.2-1.077-2.2-2.6 0-1.532.9-2.6 2.21-2.6.575 0 1.114.241 1.448.66h.019v-.52h.724v5.07c0 1.243-.79 2.08-1.996 2.08Zm-.149-2.767c.79 0 1.42-.65 1.42-1.449v-.956c0-.799-.64-1.44-1.466-1.44-.892 0-1.486.771-1.486 1.923 0 1.16.604 1.922 1.532 1.922Zm6.977.678c-.994 0-1.616-.539-1.616-1.393 0-.836.492-1.263 1.727-1.56.947-.232 1.254-.436 1.254-.836 0-.455-.4-.752-1.013-.752-.65 0-1.105.4-1.235 1.059l-.733-.14c.167-.965.938-1.578 1.968-1.578 1.105 0 1.774.613 1.774 1.597v3.464h-.678v-.52h-.018c-.298.408-.836.659-1.43.659Zm.055-.678c.79 0 1.347-.474 1.347-1.124v-1.105h-.019c-.102.242-.418.409-1.077.576-.864.223-1.198.464-1.198.892 0 .492.334.761.947.761Zm7.817-4.383v.65H64.23v3.148c0 .316.13.446.538.446h.409v.678h-.465c-.891 0-1.207-.298-1.207-1.133v-3.139h-.743v-.65h.743v-1.114h.724v1.114h1.208Zm1.614 4.922h-.724v-6.78h.724v2.312h.019c.279-.353.836-.594 1.365-.594 1.133 0 1.866.733 1.866 1.876v3.185h-.724v-3.093c0-.798-.464-1.29-1.226-1.29-.78 0-1.3.529-1.3 1.29v3.093Zm5.198-5.785h-.836v-.808h.836v.808Zm-.047 5.785h-.724v-4.922h.724v4.922Zm1.94 0h-.724v-4.922h.706v.455h.019c.297-.353.854-.594 1.383-.594 1.142 0 1.867.733 1.867 1.876v3.185h-.725v-3.093c0-.798-.464-1.29-1.225-1.29-.78 0-1.3.529-1.3 1.29v3.093Zm8.775.139c-1.393 0-2.312-1.05-2.312-2.6s.92-2.6 2.312-2.6c1.393 0 2.322 1.05 2.322 2.6s-.93 2.6-2.322 2.6Zm0-.678c.975 0 1.597-.752 1.597-1.922s-.622-1.922-1.597-1.922-1.588.752-1.588 1.922.613 1.922 1.588 1.922Zm4.075.539h-.724v-4.922h.687v.409h.019c.185-.307.547-.492 1.02-.492.177 0 .326.027.493.074l-.158.752a1.51 1.51 0 0 0-.483-.084c-.566 0-.854.381-.854 1.31v2.953Zm3.354.139c-.994 0-1.616-.539-1.616-1.393 0-.836.492-1.263 1.727-1.56.947-.232 1.254-.436 1.254-.836 0-.455-.4-.752-1.013-.752-.65 0-1.104.4-1.234 1.059l-.734-.14c.167-.965.938-1.578 1.968-1.578 1.106 0 1.774.613 1.774 1.597v3.464h-.678v-.52h-.018c-.297.408-.836.659-1.43.659Zm.055-.678c.79 0 1.347-.474 1.347-1.124v-1.105h-.019c-.102.242-.418.409-1.077.576-.864.223-1.198.464-1.198.892 0 .492.335.761.947.761Zm3.973.539h-.725v-4.922h.706v.455h.019c.297-.353.854-.594 1.383-.594 1.142 0 1.867.733 1.867 1.876v3.185h-.725v-3.093c0-.798-.464-1.29-1.225-1.29-.78 0-1.3.529-1.3 1.29v3.093Zm6.645 2.228c-.947 0-1.69-.501-1.996-1.346l.659-.297c.297.696.669.975 1.337.975.799 0 1.272-.558 1.272-1.458v-.622h-.018c-.288.427-.808.659-1.458.659-1.3 0-2.2-1.077-2.2-2.6 0-1.532.9-2.6 2.209-2.6.576 0 1.114.241 1.449.66h.018v-.52h.725v5.07c0 1.243-.79 2.08-1.997 2.08Zm-.148-2.767c.789 0 1.42-.65 1.42-1.449v-.956c0-.799-.64-1.44-1.467-1.44-.891 0-1.486.771-1.486 1.923 0 1.16.604 1.922 1.533 1.922Zm5.414.678c-1.365 0-2.275-1.05-2.275-2.6s.919-2.6 2.275-2.6c1.328 0 2.2.984 2.2 2.442v.371h-3.742c.019.938.613 1.728 1.523 1.728.697 0 1.087-.26 1.504-.985l.604.362c-.427.845-1.142 1.282-2.089 1.282Zm-1.523-2.972h2.99c-.028-.882-.594-1.569-1.467-1.569-.855 0-1.505.743-1.523 1.57Zm11.194-2.089v7.01h-.725v-2.58h-.018c-.307.37-.845.63-1.458.63-1.291 0-2.201-1.058-2.201-2.6 0-1.54.91-2.6 2.21-2.6.613 0 1.133.27 1.449.66h.018v-.52h.725Zm-2.145 4.383c.78 0 1.42-.64 1.42-1.449v-.956c0-.799-.64-1.44-1.467-1.44-.882 0-1.485.762-1.485 1.923 0 1.16.603 1.922 1.532 1.922Zm5.06.678c-1.096 0-1.737-.678-1.737-1.867v-3.194h.725V84.6c0 .873.39 1.291 1.225 1.291.753 0 1.235-.52 1.235-1.29v-3.093h.725v4.922h-.706v-.455h-.019c-.306.362-.854.594-1.448.594Zm4.168-5.924h-.836v-.808h.836v.808Zm-.047 5.785h-.724v-4.922h.724v4.922Zm1.941 0h-.724v-6.78h.724v6.779Zm3.463-4.922v.65h-1.207v3.148c0 .316.13.446.539.446h.408v.678h-.464c-.891 0-1.207-.298-1.207-1.133v-3.139h-.743v-.65h.743v-1.114h.724v1.114h1.207Zm2.699 5.06c-1.365 0-2.275-1.048-2.275-2.6 0-1.55.919-2.6 2.275-2.6 1.328 0 2.201.985 2.201 2.443v.371h-3.743c.019.938.613 1.728 1.523 1.728.697 0 1.087-.26 1.505-.985l.603.362c-.427.845-1.142 1.282-2.089 1.282Zm-1.523-2.97h2.99c-.028-.883-.594-1.57-1.467-1.57-.854 0-1.504.743-1.523 1.57Zm6.681 2.97c-1.291 0-2.201-1.058-2.201-2.6 0-1.54.91-2.6 2.21-2.6.613 0 1.133.27 1.449.66h.018V79.65h.725v6.779h-.697v-.493h-.018c-.325.4-.873.632-1.486.632Zm.056-.677c.78 0 1.42-.64 1.42-1.449v-.956c0-.799-.64-1.44-1.467-1.44-.882 0-1.486.762-1.486 1.923 0 1.16.604 1.922 1.533 1.922Zm6.745-5.246h-.835v-.808h.835v.808Zm-1.142 7.4h-.436v-.678h.399c.269 0 .409-.12.409-.362v-5.497h.724v5.534c0 .715-.344 1.003-1.096 1.003Zm3.74-1.476c-.994 0-1.616-.539-1.616-1.393 0-.836.492-1.263 1.727-1.56.947-.232 1.254-.436 1.254-.836 0-.455-.399-.752-1.012-.752-.65 0-1.105.4-1.235 1.059l-.734-.14c.167-.965.938-1.578 1.969-1.578 1.105 0 1.773.613 1.773 1.597v3.464h-.678v-.52h-.018c-.297.408-.836.659-1.43.659Zm.056-.678c.789 0 1.346-.474 1.346-1.124v-1.105h-.019c-.102.242-.417.409-1.077.576-.863.223-1.198.464-1.198.892 0 .492.335.761.948.761Zm5.337.678c-1.347 0-2.275-1.05-2.275-2.6s.928-2.6 2.275-2.6c1.133 0 1.959.696 2.145 1.792l-.706.149c-.139-.808-.669-1.263-1.439-1.263-.929 0-1.551.761-1.551 1.922 0 1.16.622 1.922 1.551 1.922.77 0 1.3-.455 1.439-1.263l.706.149c-.186 1.095-1.012 1.792-2.145 1.792Zm3.867-.14h-.724V79.65h.724v4.104h.019l2.145-2.247h.928l-1.829 1.904 1.95 3.018h-.854l-1.607-2.517h-.018l-.734.79v1.727Zm5.826.14c-1.365 0-2.275-1.05-2.275-2.6s.92-2.6 2.275-2.6c1.328 0 2.201.984 2.201 2.442v.371h-3.742c.019.938.613 1.728 1.523 1.728.696 0 1.086-.26 1.504-.985l.604.362c-.427.845-1.142 1.282-2.09 1.282Zm-1.522-2.972h2.99c-.028-.882-.595-1.569-1.468-1.569-.854 0-1.504.743-1.522 1.57Zm6.913-2.089v.65h-1.208v3.148c0 .316.13.446.539.446h.409v.678h-.465c-.891 0-1.207-.298-1.207-1.133v-3.139h-.743v-.65h.743v-1.114h.724v1.114h1.208ZM23.042 99.567c-.993 0-1.615-.538-1.615-1.392 0-.836.492-1.263 1.727-1.56.947-.232 1.253-.436 1.253-.836 0-.455-.399-.752-1.012-.752-.65 0-1.105.4-1.235 1.059l-.733-.14c.167-.965.938-1.578 1.968-1.578 1.105 0 1.774.613 1.774 1.597v3.464h-.678v-.52h-.019c-.297.408-.835.659-1.43.659Zm.056-.677c.79 0 1.347-.474 1.347-1.124v-1.105h-.02c-.101.242-.417.409-1.076.576-.864.223-1.198.464-1.198.892 0 .492.334.761.947.761Zm3.972.539h-.724V92.65h.724v6.779Zm1.94 0h-.724v-4.922h.715v.38h.019c.26-.324.734-.52 1.198-.52.557 0 1.04.26 1.29.632h.02a1.755 1.755 0 0 1 1.373-.631c.938 0 1.718.622 1.718 1.634v3.427h-.724v-3.334c0-.631-.427-1.05-1.04-1.05-.64 0-1.058.456-1.058 1.115v3.269H31.1v-3.334c0-.631-.436-1.05-1.04-1.05-.64 0-1.05.456-1.05 1.124v3.26Zm8.911.139c-1.393 0-2.312-1.05-2.312-2.6s.92-2.6 2.312-2.6c1.393 0 2.322 1.05 2.322 2.6s-.929 2.6-2.322 2.6Zm0-.678c.975 0 1.597-.752 1.597-1.922s-.622-1.922-1.597-1.922-1.588.752-1.588 1.922.613 1.922 1.588 1.922Zm5.164.678c-1.272 0-2.07-.66-2.182-1.82l.705-.13c.149.9.576 1.272 1.477 1.272.668 0 1.086-.334 1.086-.78 0-.39-.297-.604-1.355-.92-1.235-.37-1.681-.724-1.681-1.41 0-.78.715-1.412 1.671-1.412 1.031 0 1.765.566 1.95 1.467l-.705.158c-.168-.622-.576-.947-1.245-.947-.548 0-.947.325-.947.705 0 .344.297.52 1.198.799 1.374.427 1.848.817 1.848 1.56 0 .845-.724 1.458-1.82 1.458Zm4.823-5.06v.65h-1.207v3.147c0 .316.13.446.538.446h.41v.678h-.465c-.892 0-1.207-.298-1.207-1.133v-3.139h-.743v-.65h.743v-1.114h.724v1.114h1.207Zm4.117 4.92h-.724V92.65h.724v6.779Zm1.988-5.784h-.836v-.808h.836v.808Zm-.047 5.785h-.724v-4.922h.724v4.922Zm1.94 0h-.724V92.65h.725v4.104h.018l2.145-2.247H59l-1.83 1.904 1.95 3.018h-.854l-1.606-2.517h-.019l-.733.79v1.727Zm5.827.139c-1.365 0-2.275-1.05-2.275-2.6s.92-2.6 2.275-2.6c1.328 0 2.2.984 2.2 2.442v.371h-3.741c.018.938.613 1.728 1.523 1.728.696 0 1.086-.26 1.504-.985l.603.362c-.427.845-1.142 1.282-2.089 1.282Zm-1.523-2.972h2.99c-.028-.882-.594-1.569-1.467-1.569-.854 0-1.504.743-1.523 1.57Zm8.408 2.972c-.993 0-1.615-.539-1.615-1.393 0-.836.492-1.263 1.727-1.56.947-.232 1.254-.436 1.254-.836 0-.455-.4-.752-1.013-.752-.65 0-1.105.4-1.235 1.059l-.733-.14c.167-.965.938-1.578 1.968-1.578 1.105 0 1.774.613 1.774 1.597v3.464h-.678v-.52h-.018c-.298.408-.836.659-1.43.659Zm.056-.678c.79 0 1.347-.474 1.347-1.124v-1.105h-.019c-.102.242-.418.409-1.077.576-.864.223-1.198.464-1.198.892 0 .492.334.761.947.761Zm6.712.539h-.725v-4.272h-.845v-.65h.845v-.538c0-.632.409-1.04 1.105-1.04h.725v.677h-.641c-.316 0-.464.149-.464.465v.436h1.244v.65h-1.244v4.272Zm2.72 0h-.725v-4.922h.687v.409h.019c.185-.307.548-.492 1.021-.492.177 0 .325.027.492.074l-.157.752a1.51 1.51 0 0 0-.483-.084c-.567 0-.855.381-.855 1.31v2.953Zm4.103.139c-1.365 0-2.275-1.05-2.275-2.6s.92-2.6 2.275-2.6c1.328 0 2.2.984 2.2 2.442v.371h-3.742c.019.938.613 1.728 1.523 1.728.697 0 1.087-.26 1.505-.985l.603.362c-.427.845-1.142 1.282-2.09 1.282Zm-1.523-2.972h2.99c-.028-.882-.594-1.569-1.467-1.569-.854 0-1.504.743-1.523 1.57Zm5.48 2.833h-.723v-4.922h.705v.455h.019c.297-.353.854-.594 1.383-.594 1.143 0 1.867.733 1.867 1.876v3.185h-.724v-3.093c0-.798-.465-1.29-1.226-1.29-.78 0-1.3.529-1.3 1.29v3.093Zm6.517.139c-1.347 0-2.276-1.05-2.276-2.6s.93-2.6 2.276-2.6c1.132 0 1.959.696 2.144 1.792l-.705.149c-.14-.808-.669-1.263-1.44-1.263-.928 0-1.55.761-1.55 1.922 0 1.16.622 1.922 1.55 1.922.771 0 1.3-.455 1.44-1.263l.706.149c-.186 1.095-1.013 1.792-2.145 1.792Zm3.867-.14h-.724V92.65h.724v2.312h.018c.279-.353.836-.594 1.365-.594 1.133 0 1.867.733 1.867 1.876v3.185h-.724v-3.093c0-.798-.465-1.29-1.226-1.29-.78 0-1.3.529-1.3 1.29v3.093Zm8.737.14c-1.346 0-2.275-1.05-2.275-2.6s.929-2.6 2.275-2.6c1.133 0 1.959.696 2.145 1.792l-.706.149c-.139-.808-.668-1.263-1.439-1.263-.928 0-1.551.761-1.551 1.922 0 1.16.623 1.922 1.551 1.922.771 0 1.3-.455 1.439-1.263l.706.149c-.186 1.095-1.012 1.792-2.145 1.792Zm3.867-.14h-.724V92.65h.724v2.312h.019c.279-.353.836-.594 1.365-.594 1.133 0 1.866.733 1.866 1.876v3.185h-.724v-3.093c0-.798-.464-1.29-1.226-1.29-.78 0-1.3.529-1.3 1.29v3.093Zm6.553.14c-1.393 0-2.312-1.05-2.312-2.6s.919-2.6 2.312-2.6c1.393 0 2.322 1.05 2.322 2.6s-.929 2.6-2.322 2.6Zm0-.678c.975 0 1.597-.752 1.597-1.922s-.622-1.922-1.597-1.922-1.588.752-1.588 1.922.613 1.922 1.588 1.922Zm4.075.539h-.724v-4.922h.687v.409h.019c.185-.307.548-.492 1.021-.492.177 0 .325.027.492.074l-.158.752a1.504 1.504 0 0 0-.482-.084c-.567 0-.855.381-.855 1.31v2.953Zm4.104.139c-1.365 0-2.275-1.05-2.275-2.6s.919-2.6 2.275-2.6c1.328 0 2.201.984 2.201 2.442v.371h-3.743c.019.938.613 1.728 1.523 1.728.697 0 1.087-.26 1.505-.985l.603.362c-.427.845-1.142 1.282-2.089 1.282Zm-1.523-2.972h2.99c-.028-.882-.594-1.569-1.467-1.569-.854 0-1.504.743-1.523 1.57Zm9.067 2.972c-1.346 0-2.275-1.05-2.275-2.6s.929-2.6 2.275-2.6c1.133 0 1.96.696 2.145 1.792l-.705.149c-.14-.808-.669-1.263-1.44-1.263-.928 0-1.55.761-1.55 1.922 0 1.16.622 1.922 1.55 1.922.771 0 1.3-.455 1.44-1.263l.705.149c-.185 1.095-1.012 1.792-2.145 1.792Zm5.179 0c-1.393 0-2.312-1.05-2.312-2.6s.919-2.6 2.312-2.6c1.393 0 2.322 1.05 2.322 2.6s-.929 2.6-2.322 2.6Zm0-.678c.975 0 1.597-.752 1.597-1.922s-.622-1.922-1.597-1.922-1.588.752-1.588 1.922.613 1.922 1.588 1.922Zm4.69.678c-.993 0-1.616-.539-1.616-1.393 0-.836.493-1.263 1.728-1.56.947-.232 1.253-.436 1.253-.836 0-.455-.399-.752-1.012-.752-.65 0-1.105.4-1.235 1.059l-.734-.14c.168-.965.938-1.578 1.969-1.578 1.105 0 1.774.613 1.774 1.597v3.464h-.678v-.52h-.019c-.297.408-.836.659-1.43.659Zm.056-.678c.789 0 1.346-.474 1.346-1.124v-1.105h-.018c-.102.242-.418.409-1.077.576-.864.223-1.198.464-1.198.892 0 .492.334.761.947.761Zm5.404-4.383v.65h-1.207v3.148c0 .316.13.446.539.446h.408v.678h-.464c-.892 0-1.207-.298-1.207-1.133v-3.139h-.743v-.65h.743v-1.114h.724v1.114h1.207Zm5.116 5.06c-1.273 0-2.071-.658-2.183-1.82l.706-.13c.149.902.576 1.273 1.477 1.273.668 0 1.086-.334 1.086-.78 0-.39-.297-.604-1.356-.92-1.235-.37-1.68-.724-1.68-1.41 0-.78.715-1.412 1.671-1.412 1.031 0 1.764.566 1.95 1.467l-.706.158c-.167-.622-.575-.947-1.244-.947-.548 0-.947.325-.947.705 0 .344.297.52 1.198.799 1.374.427 1.848.817 1.848 1.56 0 .845-.725 1.458-1.82 1.458Zm4.823-5.06v.65h-1.207v3.148c0 .316.13.446.538.446h.409v.678h-.464c-.892 0-1.208-.298-1.208-1.133v-3.139h-.742v-.65h.742v-1.114h.725v1.114h1.207Zm1.977 7.011h-.752l1.058-2.489-1.913-4.522h.78l1.495 3.668h.019l1.495-3.668h.771l-2.953 7.011Zm4.38-2.09h-.724V92.65h.724v6.779Zm3.306.14c-1.365 0-2.275-1.05-2.275-2.6s.919-2.6 2.275-2.6c1.328 0 2.2.984 2.2 2.442v.371h-3.742c.019.938.613 1.728 1.523 1.728.697 0 1.087-.26 1.504-.985l.604.362c-.427.845-1.142 1.282-2.089 1.282Zm-1.523-2.972h2.99c-.028-.882-.594-1.569-1.467-1.569-.855 0-1.505.743-1.523 1.57Zm6.681 2.972c-1.291 0-2.201-1.059-2.201-2.6 0-1.542.91-2.6 2.21-2.6.613 0 1.133.27 1.449.66h.018V92.65h.724v6.779h-.696v-.493h-.019c-.325.4-.872.632-1.485.632Zm.055-.678c.78 0 1.421-.64 1.421-1.449v-.956c0-.799-.641-1.44-1.467-1.44-.882 0-1.486.762-1.486 1.923 0 1.16.604 1.922 1.532 1.922ZM23.516 112.568c-1.272 0-2.07-.659-2.182-1.82l.706-.13c.148.901.575 1.272 1.476 1.272.669 0 1.086-.334 1.086-.78 0-.39-.297-.604-1.355-.919-1.235-.372-1.681-.725-1.681-1.412 0-.78.715-1.411 1.671-1.411 1.031 0 1.765.566 1.95 1.467l-.705.158c-.168-.622-.576-.947-1.245-.947-.547 0-.947.325-.947.705 0 .344.297.52 1.198.799 1.374.427 1.848.817 1.848 1.56 0 .845-.724 1.458-1.82 1.458Zm3.482-.139h-.725v-6.779h.725v6.779Zm1.987-5.785h-.836v-.808h.836v.808Zm-.047 5.785h-.724v-4.922h.724v4.922Zm3.436 2.228c-.947 0-1.69-.501-1.997-1.346l.66-.297c.297.696.668.975 1.337.975.798 0 1.272-.558 1.272-1.458v-.622h-.019c-.288.427-.808.659-1.458.659-1.3 0-2.2-1.077-2.2-2.6 0-1.532.9-2.6 2.21-2.6.575 0 1.114.241 1.448.659h.019v-.52h.724v5.07c0 1.244-.79 2.08-1.996 2.08Zm-.149-2.767c.79 0 1.42-.65 1.42-1.449v-.956c0-.799-.64-1.439-1.466-1.439-.892 0-1.486.77-1.486 1.922 0 1.161.604 1.922 1.532 1.922Zm4.05.539h-.725v-6.779h.724v2.312h.019c.278-.353.836-.594 1.365-.594 1.133 0 1.866.733 1.866 1.876v3.185H38.8v-3.093c0-.798-.464-1.29-1.226-1.29-.78 0-1.3.529-1.3 1.29v3.093Zm6.582-4.922v.65H41.65v3.148c0 .316.13.446.539.446h.408v.678h-.464c-.892 0-1.207-.298-1.207-1.133v-3.139h-.743v-.65h.743v-1.114h.724v1.114h1.207Zm1.615 4.922h-.724v-6.779h.724v6.779Zm2.303 2.089h-.753l1.059-2.489-1.913-4.522h.78l1.495 3.668h.019l1.495-3.668h.77l-2.952 7.011Zm8.004-1.95c-1.393 0-2.312-1.049-2.312-2.6 0-1.551.919-2.6 2.312-2.6 1.393 0 2.321 1.049 2.321 2.6 0 1.551-.928 2.6-2.321 2.6Zm0-.678c.975 0 1.597-.752 1.597-1.922s-.622-1.922-1.597-1.922-1.588.752-1.588 1.922.613 1.922 1.588 1.922Zm4.311.539h-.724v-4.272h-.845v-.65h.845v-.538c0-.632.409-1.04 1.105-1.04h.724v.677h-.64c-.316 0-.465.149-.465.465v.436h.966v.65h-.966v4.272Zm2.866 0h-.725v-4.272h-.845v-.65h.845v-.538c0-.632.41-1.04 1.105-1.04h.725v.677h-.64c-.317 0-.465.149-.465.465v.436H63.2v.65h-1.244v4.272Zm5.222 0h-.724v-6.779h.724v2.312h.019c.278-.353.836-.594 1.365-.594 1.133 0 1.866.733 1.866 1.876v3.185h-.724v-3.093c0-.798-.464-1.29-1.226-1.29-.78 0-1.3.529-1.3 1.29v3.093Zm6.516.139c-1.365 0-2.275-1.049-2.275-2.6 0-1.551.92-2.6 2.275-2.6 1.328 0 2.2.984 2.2 2.442v.371h-3.741c.018.938.612 1.728 1.522 1.728.697 0 1.087-.26 1.505-.985l.603.362c-.427.845-1.142 1.282-2.089 1.282Zm-1.523-2.972h2.99c-.028-.882-.594-1.569-1.467-1.569-.854 0-1.504.743-1.523 1.569Zm5.48 2.833h-.723v-4.922h.687v.409h.018c.186-.307.548-.492 1.022-.492.176 0 .325.027.492.074l-.158.752a1.503 1.503 0 0 0-.483-.084c-.566 0-.854.381-.854 1.31v2.953Zm6.521.139c-1.272 0-2.07-.659-2.182-1.82l.706-.13c.148.901.576 1.272 1.476 1.272.669 0 1.087-.334 1.087-.78 0-.39-.297-.604-1.356-.919-1.235-.372-1.68-.725-1.68-1.412 0-.78.714-1.411 1.67-1.411 1.031 0 1.765.566 1.95 1.467l-.705.158c-.167-.622-.576-.947-1.244-.947-.548 0-.947.325-.947.705 0 .344.297.52 1.197.799 1.375.427 1.848.817 1.848 1.56 0 .845-.724 1.458-1.82 1.458Zm3.482-.139h-.724v-6.779h.724v2.312h.019c.278-.353.835-.594 1.365-.594 1.133 0 1.866.733 1.866 1.876v3.185h-.724v-3.093c0-.798-.465-1.29-1.226-1.29-.78 0-1.3.529-1.3 1.29v3.093Zm6.553.139c-1.393 0-2.312-1.049-2.312-2.6 0-1.551.919-2.6 2.312-2.6 1.393 0 2.321 1.049 2.321 2.6 0 1.551-.928 2.6-2.321 2.6Zm0-.678c.975 0 1.597-.752 1.597-1.922s-.622-1.922-1.597-1.922-1.588.752-1.588 1.922.613 1.922 1.588 1.922Zm5.04.678c-1.095 0-1.736-.678-1.736-1.867v-3.194h.724v3.092c0 .873.39 1.291 1.226 1.291.752 0 1.235-.52 1.235-1.291v-3.092h.724v4.922h-.705v-.455h-.019c-.306.362-.854.594-1.448.594Zm4.122-.139h-.724v-6.779h.724v6.779Zm3.231.139c-1.29 0-2.2-1.059-2.2-2.6 0-1.542.91-2.6 2.21-2.6.612 0 1.132.269 1.448.659h.019v-2.377h.724v6.779h-.696v-.493h-.019c-.325.4-.873.632-1.486.632Zm.056-.678c.78 0 1.421-.641 1.421-1.449v-.956c0-.799-.641-1.439-1.467-1.439-.883 0-1.486.761-1.486 1.922s.603 1.922 1.532 1.922Zm5.459.678c-1.365 0-2.275-1.049-2.275-2.6 0-1.551.92-2.6 2.275-2.6 1.328 0 2.201.984 2.201 2.442v.371h-3.742c.019.938.613 1.728 1.523 1.728.696 0 1.086-.26 1.504-.985l.604.362c-.427.845-1.142 1.282-2.09 1.282Zm-1.522-2.972h2.99c-.028-.882-.595-1.569-1.468-1.569-.854 0-1.504.743-1.522 1.569Zm5.48 2.833h-.724v-4.922h.687v.409h.019c.186-.307.548-.492 1.021-.492.177 0 .325.027.492.074l-.157.752a1.507 1.507 0 0 0-.483-.084c-.567 0-.855.381-.855 1.31v2.953Zm1.649.965v-.408c.307-.056.437-.214.437-.557h-.483v-1.05h1.133v.91c0 .678-.381 1.068-1.087 1.105Zm6.34-.965h-.687l-1.179-4.922h.715l.891 3.826h.019l1.318-3.826h.66l1.318 3.826h.019l.891-3.826h.715l-1.179 4.922h-.687l-1.393-4.021h-.019l-1.402 4.021Zm6.248 0h-.724v-6.779h.724v2.312h.019c.278-.353.836-.594 1.365-.594 1.133 0 1.866.733 1.866 1.876v3.185h-.724v-3.093c0-.798-.464-1.29-1.226-1.29-.78 0-1.3.529-1.3 1.29v3.093Zm5.197-5.785h-.835v-.808h.835v.808Zm-.046 5.785h-.724v-4.922h.724v4.922Zm3.463-4.922v.65h-1.207v3.148c0 .316.13.446.539.446h.408v.678h-.464c-.891 0-1.207-.298-1.207-1.133v-3.139h-.743v-.65h.743v-1.114h.724v1.114h1.207Zm2.699 5.061c-1.365 0-2.275-1.049-2.275-2.6 0-1.551.919-2.6 2.275-2.6 1.328 0 2.201.984 2.201 2.442v.371h-3.742c.018.938.612 1.728 1.522 1.728.697 0 1.087-.26 1.505-.985l.603.362c-.427.845-1.142 1.282-2.089 1.282Zm-1.523-2.972h2.99c-.028-.882-.594-1.569-1.467-1.569-.854 0-1.504.743-1.523 1.569Zm9.068 2.972c-1.347 0-2.275-1.049-2.275-2.6 0-1.551.928-2.6 2.275-2.6 1.132 0 1.959.696 2.145 1.792l-.706.149c-.139-.808-.669-1.263-1.439-1.263-.929 0-1.551.761-1.551 1.922s.622 1.922 1.551 1.922c.77 0 1.3-.455 1.439-1.263l.706.149c-.186 1.095-1.013 1.792-2.145 1.792Zm5.178 0c-1.393 0-2.312-1.049-2.312-2.6 0-1.551.919-2.6 2.312-2.6 1.393 0 2.322 1.049 2.322 2.6 0 1.551-.929 2.6-2.322 2.6Zm0-.678c.975 0 1.597-.752 1.597-1.922s-.622-1.922-1.597-1.922-1.588.752-1.588 1.922.613 1.922 1.588 1.922Zm5.331-4.383v.65h-1.031v3.148c0 .316.13.446.539.446h.409v.678h-.465c-.891 0-1.207-.298-1.207-1.133v-3.139h-.743v-.65h.743v-1.114h.724v1.114h1.031Zm2.997 0v.65h-1.207v3.148c0 .316.13.446.538.446h.409v.678h-.465c-.891 0-1.207-.298-1.207-1.133v-3.139h-.743v-.65h.743v-1.114h.725v1.114h1.207Zm2.735 5.061c-1.392 0-2.312-1.049-2.312-2.6 0-1.551.92-2.6 2.312-2.6 1.393 0 2.322 1.049 2.322 2.6 0 1.551-.929 2.6-2.322 2.6Zm0-.678c.975 0 1.598-.752 1.598-1.922s-.623-1.922-1.598-1.922c-.975 0-1.587.752-1.587 1.922s.612 1.922 1.587 1.922Zm4.075.539h-.724v-4.922h.706v.455h.018c.298-.353.855-.594 1.384-.594 1.142 0 1.866.733 1.866 1.876v3.185h-.724v-3.093c0-.798-.464-1.29-1.226-1.29-.78 0-1.3.529-1.3 1.29v3.093ZM23.702 125.568c-1.347 0-2.275-1.049-2.275-2.6 0-1.551.928-2.6 2.275-2.6 1.132 0 1.959.696 2.145 1.792l-.706.149c-.14-.808-.669-1.263-1.44-1.263-.928 0-1.55.761-1.55 1.922s.622 1.922 1.55 1.922c.771 0 1.3-.455 1.44-1.263l.706.149c-.186 1.095-1.013 1.792-2.145 1.792Zm4.482 0c-.994 0-1.616-.539-1.616-1.393 0-.836.492-1.263 1.727-1.56.947-.232 1.254-.436 1.254-.836 0-.455-.4-.752-1.012-.752-.65 0-1.105.399-1.235 1.059l-.734-.14c.167-.965.938-1.578 1.969-1.578 1.105 0 1.773.613 1.773 1.597v3.464h-.677v-.52h-.019c-.297.408-.836.659-1.43.659Zm.056-.678c.789 0 1.346-.474 1.346-1.124v-1.105h-.018c-.103.242-.418.409-1.078.576-.863.223-1.197.464-1.197.892 0 .492.334.761.947.761Zm3.972.539h-.725v-4.922h.688v.409h.018c.186-.307.548-.492 1.022-.492.176 0 .325.027.492.074l-.158.752a1.503 1.503 0 0 0-.483-.084c-.566 0-.854.381-.854 1.31v2.953Zm4.03.139c-1.292 0-2.202-1.059-2.202-2.6 0-1.542.91-2.6 2.21-2.6.613 0 1.133.269 1.449.659h.019v-2.377h.724v6.779h-.697v-.493h-.018c-.325.4-.873.632-1.486.632Zm.055-.678c.78 0 1.42-.641 1.42-1.449v-.956c0-.799-.64-1.439-1.467-1.439-.882 0-1.485.761-1.485 1.922s.603 1.922 1.532 1.922Zm4.14-5.246h-.835v-.808h.836v.808Zm-.046 5.785h-.724v-4.922h.724v4.922Zm3.436 2.228c-.947 0-1.69-.501-1.997-1.346l.66-.297c.297.696.668.975 1.337.975.798 0 1.272-.558 1.272-1.458v-.622h-.019c-.288.427-.807.659-1.457.659-1.3 0-2.201-1.077-2.201-2.6 0-1.532.9-2.6 2.21-2.6.576 0 1.114.241 1.448.659h.019v-.52h.724v5.07c0 1.244-.79 2.08-1.996 2.08Zm-.149-2.767c.79 0 1.42-.65 1.42-1.449v-.956c0-.799-.64-1.439-1.466-1.439-.892 0-1.486.77-1.486 1.922 0 1.161.604 1.922 1.532 1.922Zm4.755.678c-.994 0-1.616-.539-1.616-1.393 0-.836.492-1.263 1.727-1.56.948-.232 1.254-.436 1.254-.836 0-.455-.4-.752-1.012-.752-.65 0-1.105.399-1.235 1.059l-.734-.14c.167-.965.938-1.578 1.969-1.578 1.105 0 1.773.613 1.773 1.597v3.464h-.677v-.52h-.019c-.297.408-.836.659-1.43.659Zm.056-.678c.789 0 1.346-.474 1.346-1.124v-1.105h-.018c-.103.242-.418.409-1.078.576-.863.223-1.197.464-1.197.892 0 .492.334.761.947.761Zm3.972.539h-.724v-4.922h.705v.455h.019c.297-.353.854-.594 1.383-.594 1.142 0 1.867.733 1.867 1.876v3.185h-.724v-3.093c0-.798-.465-1.29-1.226-1.29-.78 0-1.3.529-1.3 1.29v3.093Zm8.619.139c-1.096 0-1.736-.678-1.736-1.867v-3.194h.724v3.092c0 .873.39 1.291 1.226 1.291.752 0 1.235-.52 1.235-1.291v-3.092h.724v4.922h-.706v-.455h-.018c-.307.362-.855.594-1.449.594Zm4.121-.139h-.724v-4.922h.706v.455h.018c.298-.353.855-.594 1.384-.594 1.142 0 1.867.733 1.867 1.876v3.185h-.725v-3.093c0-.798-.464-1.29-1.226-1.29-.78 0-1.3.529-1.3 1.29v3.093Zm6.442.139c-1.29 0-2.2-1.059-2.2-2.6 0-1.542.91-2.6 2.21-2.6.612 0 1.132.269 1.448.659h.018v-2.377h.725v6.779h-.697v-.493h-.018c-.325.4-.873.632-1.486.632Zm.056-.678c.78 0 1.42-.641 1.42-1.449v-.956c0-.799-.64-1.439-1.467-1.439-.882 0-1.486.761-1.486 1.922s.604 1.922 1.533 1.922Zm5.459.678c-1.365 0-2.275-1.049-2.275-2.6 0-1.551.92-2.6 2.275-2.6 1.328 0 2.2.984 2.2 2.442v.371h-3.741c.018.938.612 1.728 1.522 1.728.697 0 1.087-.26 1.505-.985l.603.362c-.427.845-1.142 1.282-2.089 1.282Zm-1.523-2.972h2.99c-.028-.882-.594-1.569-1.467-1.569-.854 0-1.504.743-1.523 1.569Zm5.481 2.833h-.724v-4.922h.687v.409h.018c.186-.307.548-.492 1.022-.492.176 0 .325.027.492.074l-.158.752a1.503 1.503 0 0 0-.483-.084c-.566 0-.854.381-.854 1.31v2.953Zm1.649.965v-.408c.306-.056.436-.214.436-.557h-.482v-1.05h1.132v.91c0 .678-.38 1.068-1.086 1.105Zm6.184-.826c-.993 0-1.615-.539-1.615-1.393 0-.836.492-1.263 1.727-1.56.947-.232 1.253-.436 1.253-.836 0-.455-.4-.752-1.012-.752-.65 0-1.105.399-1.235 1.059l-.733-.14c.167-.965.937-1.578 1.968-1.578 1.105 0 1.774.613 1.774 1.597v3.464h-.678v-.52h-.019c-.297.408-.836.659-1.43.659Zm.056-.678c.79 0 1.346-.474 1.346-1.124v-1.105h-.018c-.102.242-.418.409-1.077.576-.864.223-1.198.464-1.198.892 0 .492.334.761.947.761Zm3.972.539h-.724v-4.922h.705v.455h.019c.297-.353.854-.594 1.384-.594 1.142 0 1.866.733 1.866 1.876v3.185h-.724v-3.093c0-.798-.465-1.29-1.226-1.29-.78 0-1.3.529-1.3 1.29v3.093Zm6.441.139c-1.29 0-2.2-1.059-2.2-2.6 0-1.542.91-2.6 2.21-2.6.613 0 1.133.269 1.448.659h.019v-2.377h.724v6.779h-.696v-.493h-.019c-.325.4-.873.632-1.486.632Zm.056-.678c.78 0 1.421-.641 1.421-1.449v-.956c0-.799-.641-1.439-1.467-1.439-.882 0-1.486.761-1.486 1.922s.604 1.922 1.532 1.922Zm8.064.678c-.603 0-1.151-.232-1.476-.632h-.019v.493h-.696v-6.779h.724v2.377h.019c.316-.39.836-.659 1.448-.659 1.291 0 2.21 1.058 2.21 2.6 0 1.541-.919 2.6-2.21 2.6Zm-.046-.678c.929 0 1.532-.761 1.532-1.922s-.603-1.922-1.486-1.922c-.826 0-1.467.64-1.467 1.439v.956c0 .808.641 1.449 1.421 1.449Zm4.02.539h-.724v-6.779h.724v6.779Zm2.646.139c-.993 0-1.615-.539-1.615-1.393 0-.836.492-1.263 1.727-1.56.947-.232 1.253-.436 1.253-.836 0-.455-.399-.752-1.012-.752-.65 0-1.105.399-1.235 1.059l-.733-.14c.167-.965.938-1.578 1.968-1.578 1.105 0 1.774.613 1.774 1.597v3.464h-.678v-.52h-.019c-.297.408-.835.659-1.43.659Zm.056-.678c.789 0 1.347-.474 1.347-1.124v-1.105h-.019c-.102.242-.418.409-1.077.576-.864.223-1.198.464-1.198.892 0 .492.334.761.947.761Zm5.337.678c-1.346 0-2.275-1.049-2.275-2.6 0-1.551.929-2.6 2.275-2.6 1.133 0 1.96.696 2.145 1.792l-.705.149c-.14-.808-.669-1.263-1.44-1.263-.928 0-1.55.761-1.55 1.922s.622 1.922 1.55 1.922c.771 0 1.3-.455 1.44-1.263l.705.149c-.185 1.095-1.012 1.792-2.145 1.792Zm3.868-.139h-.725v-6.779h.725v4.104h.018l2.145-2.247h.929l-1.83 1.904 1.95 3.018h-.854l-1.606-2.517h-.019l-.733.789v1.728Zm8.712.139c-.603 0-1.151-.232-1.476-.632h-.019v.493h-.696v-6.779h.724v2.377h.019c.315-.39.835-.659 1.448-.659 1.291 0 2.21 1.058 2.21 2.6 0 1.541-.919 2.6-2.21 2.6Zm-.046-.678c.928 0 1.532-.761 1.532-1.922s-.604-1.922-1.486-1.922c-.826 0-1.467.64-1.467 1.439v.956c0 .808.641 1.449 1.421 1.449Zm4.635.678c-.994 0-1.616-.539-1.616-1.393 0-.836.492-1.263 1.727-1.56.947-.232 1.254-.436 1.254-.836 0-.455-.399-.752-1.012-.752-.65 0-1.105.399-1.235 1.059l-.734-.14c.167-.965.938-1.578 1.969-1.578 1.105 0 1.773.613 1.773 1.597v3.464h-.678v-.52h-.018c-.297.408-.836.659-1.43.659Zm.056-.678c.789 0 1.346-.474 1.346-1.124v-1.105h-.019c-.102.242-.417.409-1.077.576-.863.223-1.198.464-1.198.892 0 .492.335.761.948.761Zm5.467 2.767c-.947 0-1.69-.501-1.997-1.346l.66-.297c.297.696.668.975 1.337.975.798 0 1.272-.558 1.272-1.458v-.622h-.019c-.288.427-.808.659-1.458.659-1.3 0-2.2-1.077-2.2-2.6 0-1.532.9-2.6 2.21-2.6.575 0 1.114.241 1.448.659h.019v-.52h.724v5.07c0 1.244-.789 2.08-1.996 2.08Zm-.149-2.767c.789 0 1.421-.65 1.421-1.449v-.956c0-.799-.641-1.439-1.467-1.439-.892 0-1.486.77-1.486 1.922 0 1.161.604 1.922 1.532 1.922Zm5.544 2.767c-.947 0-1.69-.501-1.996-1.346l.659-.297c.297.696.669.975 1.337.975.799 0 1.272-.558 1.272-1.458v-.622h-.018c-.288.427-.808.659-1.458.659-1.3 0-2.201-1.077-2.201-2.6 0-1.532.901-2.6 2.21-2.6.576 0 1.114.241 1.449.659h.018v-.52h.725v5.07c0 1.244-.79 2.08-1.997 2.08Zm-.148-2.767c.789 0 1.42-.65 1.42-1.449v-.956c0-.799-.64-1.439-1.467-1.439-.891 0-1.486.77-1.486 1.922 0 1.161.604 1.922 1.533 1.922Zm4.411 2.628h-.752l1.058-2.489-1.913-4.522h.78l1.495 3.668h.019l1.495-3.668h.771l-2.953 7.011Zm7.463-2.089h-.687l-1.179-4.922h.715l.891 3.826h.019l1.318-3.826h.66l1.318 3.826h.019l.891-3.826h.715l-1.179 4.922h-.687l-1.393-4.021h-.019l-1.402 4.021Zm6.295-5.785h-.836v-.808h.836v.808Zm-.047 5.785h-.724v-4.922h.724v4.922Zm3.232.139c-1.291 0-2.201-1.059-2.201-2.6 0-1.542.91-2.6 2.21-2.6.613 0 1.133.269 1.448.659h.019v-2.377h.724v6.779h-.696v-.493h-.019c-.325.4-.873.632-1.485.632Zm.055-.678c.78 0 1.421-.641 1.421-1.449v-.956c0-.799-.641-1.439-1.467-1.439-.882 0-1.486.761-1.486 1.922s.604 1.922 1.532 1.922Zm5.46.678c-1.365 0-2.275-1.049-2.275-2.6 0-1.551.919-2.6 2.275-2.6 1.328 0 2.2.984 2.2 2.442v.371h-3.742c.019.938.613 1.728 1.523 1.728.697 0 1.087-.26 1.504-.985l.604.362c-.427.845-1.142 1.282-2.089 1.282Zm-1.523-2.972h2.99c-.028-.882-.594-1.569-1.467-1.569-.855 0-1.505.743-1.523 1.569Zm-150.5 15.833h-.724v-6.779h.725v6.779Zm3.306.139c-1.365 0-2.275-1.049-2.275-2.6 0-1.551.92-2.6 2.275-2.6 1.328 0 2.2.984 2.2 2.442v.371h-3.741c.018.938.613 1.728 1.523 1.728.696 0 1.086-.26 1.504-.985l.604.362c-.428.845-1.143 1.282-2.09 1.282Zm-1.523-2.972h2.99c-.028-.882-.594-1.569-1.467-1.569-.854 0-1.504.743-1.523 1.569Zm6.886 5.061c-.948 0-1.69-.501-1.997-1.346l.66-.297c.297.696.668.975 1.337.975.798 0 1.272-.558 1.272-1.458v-.622h-.019c-.288.427-.808.659-1.458.659-1.3 0-2.2-1.077-2.2-2.6 0-1.532.9-2.6 2.21-2.6.575 0 1.114.241 1.448.659h.019v-.52H33v5.07c0 1.244-.79 2.08-1.996 2.08Zm-.15-2.767c.79 0 1.422-.65 1.422-1.449v-.956c0-.799-.641-1.439-1.468-1.439-.89 0-1.485.77-1.485 1.922 0 1.161.603 1.922 1.532 1.922Zm7.55.678c-1.271 0-2.07-.659-2.181-1.82l.705-.13c.149.901.576 1.272 1.477 1.272.668 0 1.086-.334 1.086-.78 0-.39-.297-.604-1.356-.919-1.235-.372-1.68-.725-1.68-1.412 0-.78.715-1.411 1.671-1.411 1.03 0 1.764.566 1.95 1.467l-.706.158c-.167-.622-.575-.947-1.244-.947-.548 0-.947.325-.947.705 0 .344.297.52 1.198.799 1.374.427 1.848.817 1.848 1.56 0 .845-.725 1.458-1.82 1.458Zm4.824-5.061v.65h-1.207v3.148c0 .316.13.446.538.446h.409v.678h-.464c-.892 0-1.208-.298-1.208-1.133v-3.139h-.742v-.65h.742v-1.114h.725v1.114h1.207Zm1.615 4.922h-.725v-4.922h.688v.409h.018c.186-.307.548-.492 1.021-.492.177 0 .326.027.493.074l-.158.752a1.504 1.504 0 0 0-.483-.084c-.566 0-.854.381-.854 1.31v2.953Zm3.985.139c-1.096 0-1.736-.678-1.736-1.867v-3.194h.724v3.092c0 .873.39 1.291 1.226 1.291.752 0 1.235-.52 1.235-1.291v-3.092h.724v4.922h-.706v-.455h-.018c-.307.362-.855.594-1.449.594Zm5.486 0c-1.346 0-2.274-1.049-2.274-2.6 0-1.551.928-2.6 2.275-2.6 1.132 0 1.959.696 2.145 1.792l-.706.149c-.14-.808-.669-1.263-1.44-1.263-.928 0-1.55.761-1.55 1.922s.622 1.922 1.55 1.922c.771 0 1.3-.455 1.44-1.263l.706.149c-.186 1.095-1.013 1.792-2.145 1.792Zm5.3-5.061v.65h-1.207v3.148c0 .316.13.446.538.446h.409v.678h-.464c-.892 0-1.207-.298-1.207-1.133v-3.139h-.743v-.65h.742v-1.114h.725v1.114h1.207Zm2.58 5.061c-1.095 0-1.736-.678-1.736-1.867v-3.194h.724v3.092c0 .873.39 1.291 1.226 1.291.752 0 1.235-.52 1.235-1.291v-3.092h.724v4.922h-.705v-.455h-.02c-.306.362-.853.594-1.448.594Zm4.122-.139h-.724v-4.922h.687v.409h.018c.186-.307.548-.492 1.022-.492.176 0 .325.027.492.074l-.158.752a1.503 1.503 0 0 0-.483-.084c-.566 0-.854.381-.854 1.31v2.953Zm4.103.139c-1.365 0-2.275-1.049-2.275-2.6 0-1.551.92-2.6 2.275-2.6 1.328 0 2.201.984 2.201 2.442v.371H68.88c.018.938.613 1.728 1.523 1.728.696 0 1.086-.26 1.504-.985l.604.362c-.428.845-1.142 1.282-2.09 1.282Zm-1.523-2.972h2.99c-.027-.882-.594-1.569-1.467-1.569-.854 0-1.504.743-1.523 1.569Zm6.681 2.972c-1.29 0-2.2-1.059-2.2-2.6 0-1.542.91-2.6 2.21-2.6.613 0 1.133.269 1.448.659h.019v-2.377h.724v6.779h-.696v-.493h-.019c-.325.4-.873.632-1.486.632Zm.056-.678c.78 0 1.42-.641 1.42-1.449v-.956c0-.799-.64-1.439-1.466-1.439-.882 0-1.486.761-1.486 1.922s.603 1.922 1.532 1.922Zm7.022.678c-.994 0-1.616-.539-1.616-1.393 0-.836.492-1.263 1.727-1.56.948-.232 1.254-.436 1.254-.836 0-.455-.4-.752-1.012-.752-.65 0-1.105.399-1.235 1.059l-.734-.14c.167-.965.938-1.578 1.969-1.578 1.105 0 1.773.613 1.773 1.597v3.464h-.677v-.52h-.02c-.296.408-.835.659-1.43.659Zm.056-.678c.789 0 1.346-.474 1.346-1.124v-1.105h-.019c-.102.242-.417.409-1.077.576-.863.223-1.198.464-1.198.892 0 .492.335.761.948.761Zm3.972.539h-.724v-4.922h.705v.455h.019c.297-.353.854-.594 1.383-.594 1.143 0 1.867.733 1.867 1.876v3.185h-.724v-3.093c0-.798-.465-1.29-1.226-1.29-.78 0-1.3.529-1.3 1.29v3.093Zm6.441.139c-1.29 0-2.2-1.059-2.2-2.6 0-1.542.91-2.6 2.21-2.6.612 0 1.132.269 1.448.659h.019v-2.377h.724v6.779h-.697v-.493h-.018c-.325.4-.873.632-1.486.632Zm.056-.678c.78 0 1.42-.641 1.42-1.449v-.956c0-.799-.64-1.439-1.467-1.439-.882 0-1.485.761-1.485 1.922s.603 1.922 1.532 1.922Zm7.939-4.383v.65h-1.208v3.148c0 .316.13.446.539.446h.409v.678h-.465c-.891 0-1.207-.298-1.207-1.133v-3.139h-.743v-.65h.743v-1.114h.724v1.114h1.208Zm2.039 5.061c-.994 0-1.616-.539-1.616-1.393 0-.836.492-1.263 1.727-1.56.947-.232 1.254-.436 1.254-.836 0-.455-.399-.752-1.012-.752-.65 0-1.105.399-1.235 1.059l-.734-.14c.167-.965.938-1.578 1.969-1.578 1.105 0 1.773.613 1.773 1.597v3.464h-.678v-.52h-.018c-.297.408-.836.659-1.43.659Zm.056-.678c.789 0 1.346-.474 1.346-1.124v-1.105h-.019c-.102.242-.417.409-1.077.576-.863.223-1.198.464-1.198.892 0 .492.335.761.948.761Zm4.018-5.246h-.836v-.808h.836v.808Zm-.046 5.785h-.725v-4.922h.725v4.922Zm1.94 0h-.724v-6.779h.724v6.779Zm3.343.139c-1.393 0-2.312-1.049-2.312-2.6 0-1.551.919-2.6 2.312-2.6 1.393 0 2.321 1.049 2.321 2.6 0 1.551-.928 2.6-2.321 2.6Zm0-.678c.975 0 1.597-.752 1.597-1.922s-.622-1.922-1.597-1.922-1.588.752-1.588 1.922.613 1.922 1.588 1.922Zm4.075.539h-.724v-4.922h.687v.409h.018c.186-.307.548-.492 1.022-.492.176 0 .325.027.492.074l-.158.752a1.503 1.503 0 0 0-.483-.084c-.566 0-.854.381-.854 1.31v2.953Zm4.104.139c-1.365 0-2.275-1.049-2.275-2.6 0-1.551.919-2.6 2.275-2.6 1.327 0 2.2.984 2.2 2.442v.371h-3.742c.019.938.613 1.728 1.523 1.728.696 0 1.086-.26 1.504-.985l.604.362c-.427.845-1.142 1.282-2.089 1.282Zm-1.523-2.972h2.99c-.028-.882-.595-1.569-1.467-1.569-.855 0-1.505.743-1.523 1.569Zm6.68 2.972c-1.29 0-2.2-1.059-2.2-2.6 0-1.542.91-2.6 2.21-2.6.613 0 1.133.269 1.448.659h.019v-2.377h.724v6.779h-.696v-.493h-.019c-.325.4-.873.632-1.486.632Zm.056-.678c.78 0 1.421-.641 1.421-1.449v-.956c0-.799-.641-1.439-1.467-1.439-.882 0-1.486.761-1.486 1.922s.604 1.922 1.532 1.922Zm6.597.539h-.724v-4.922h.706v.455h.018c.298-.353.855-.594 1.384-.594 1.142 0 1.866.733 1.866 1.876v3.185h-.724v-3.093c0-.798-.464-1.29-1.226-1.29-.78 0-1.3.529-1.3 1.29v3.093Zm5.423 2.089h-.753l1.059-2.489-1.913-4.522h.78l1.495 3.668h.019l1.495-3.668h.77l-2.952 7.011Zm4.38-2.089h-.724v-6.779h.724v6.779Zm3.343.139c-1.393 0-2.312-1.049-2.312-2.6 0-1.551.919-2.6 2.312-2.6 1.393 0 2.321 1.049 2.321 2.6 0 1.551-.928 2.6-2.321 2.6Zm0-.678c.975 0 1.597-.752 1.597-1.922s-.622-1.922-1.597-1.922-1.588.752-1.588 1.922.613 1.922 1.588 1.922Zm4.075.539h-.725v-4.922h.706v.455h.019c.297-.353.854-.594 1.383-.594 1.142 0 1.867.733 1.867 1.876v3.185h-.725v-3.093c0-.798-.464-1.29-1.225-1.29-.78 0-1.3.529-1.3 1.29v3.093ZM23.516 151.568c-1.272 0-2.07-.659-2.182-1.82l.706-.13c.148.901.575 1.272 1.476 1.272.669 0 1.086-.334 1.086-.78 0-.39-.297-.604-1.355-.919-1.235-.372-1.681-.725-1.681-1.412 0-.78.715-1.411 1.671-1.411 1.031 0 1.765.566 1.95 1.467l-.705.158c-.168-.622-.576-.947-1.245-.947-.547 0-.947.325-.947.705 0 .344.297.52 1.198.799 1.374.427 1.848.817 1.848 1.56 0 .845-.724 1.458-1.82 1.458Zm4.062-.139h-.687l-1.18-4.922h.715l.892 3.826h.018l1.319-3.826h.66l1.318 3.826h.018l.892-3.826h.715l-1.18 4.922h-.687l-1.393-4.021h-.018l-1.402 4.021Zm7.432.139c-1.365 0-2.275-1.049-2.275-2.6 0-1.551.919-2.6 2.275-2.6 1.327 0 2.2.984 2.2 2.442v.371h-3.742c.019.938.613 1.728 1.523 1.728.696 0 1.086-.26 1.504-.985l.604.362c-.427.845-1.142 1.282-2.09 1.282Zm-1.523-2.972h2.99c-.028-.882-.595-1.569-1.467-1.569-.855 0-1.505.743-1.523 1.569Zm6.096 2.972c-.994 0-1.616-.539-1.616-1.393 0-.836.492-1.263 1.727-1.56.947-.232 1.253-.436 1.253-.836 0-.455-.399-.752-1.012-.752-.65 0-1.105.399-1.235 1.059l-.733-.14c.167-.965.938-1.578 1.968-1.578 1.105 0 1.774.613 1.774 1.597v3.464h-.678v-.52h-.018c-.298.408-.836.659-1.43.659Zm.055-.678c.79 0 1.347-.474 1.347-1.124v-1.105h-.019c-.102.242-.418.409-1.077.576-.864.223-1.198.464-1.198.892 0 .492.334.761.947.761Zm5.404-4.383v.65h-1.207v3.148c0 .316.13.446.539.446h.408v.678h-.464c-.891 0-1.207-.298-1.207-1.133v-3.139h-.743v-.65h.743v-1.114h.724v1.114h1.207Zm1.615 7.011h-.724v-7.011h.724v.52h.019c.316-.39.835-.659 1.44-.659 1.3 0 2.218 1.058 2.218 2.6 0 1.541-.919 2.6-2.2 2.6-.613 0-1.152-.26-1.458-.632h-.019v2.582Zm1.421-2.628c.928 0 1.532-.761 1.532-1.922s-.603-1.922-1.495-1.922c-.817 0-1.458.64-1.458 1.439v.956c0 .808.641 1.449 1.421 1.449Zm4.635.678c-.993 0-1.616-.539-1.616-1.393 0-.836.493-1.263 1.728-1.56.947-.232 1.253-.436 1.253-.836 0-.455-.4-.752-1.012-.752-.65 0-1.105.399-1.235 1.059l-.734-.14c.168-.965.938-1.578 1.969-1.578 1.105 0 1.774.613 1.774 1.597v3.464h-.678v-.52h-.019c-.297.408-.836.659-1.43.659Zm.056-.678c.79 0 1.346-.474 1.346-1.124v-1.105h-.018c-.102.242-.418.409-1.077.576-.864.223-1.198.464-1.198.892 0 .492.334.761.947.761Zm3.972.539h-.724v-4.922h.705v.455h.019c.297-.353.854-.594 1.383-.594 1.143 0 1.867.733 1.867 1.876v3.185h-.724v-3.093c0-.798-.465-1.29-1.226-1.29-.78 0-1.3.529-1.3 1.29v3.093Zm6.583-4.922v.65h-1.207v3.148c0 .316.13.446.538.446h.409v.678h-.465c-.89 0-1.207-.298-1.207-1.133v-3.139h-.742v-.65h.742v-1.114h.725v1.114h1.207Zm2.612 5.061c-1.272 0-2.07-.659-2.182-1.82l.706-.13c.149.901.576 1.272 1.476 1.272.669 0 1.087-.334 1.087-.78 0-.39-.297-.604-1.356-.919-1.235-.372-1.68-.725-1.68-1.412 0-.78.714-1.411 1.67-1.411 1.032 0 1.765.566 1.95 1.467l-.705.158c-.167-.622-.576-.947-1.244-.947-.548 0-.947.325-.947.705 0 .344.297.52 1.198.799 1.374.427 1.847.817 1.847 1.56 0 .845-.724 1.458-1.82 1.458Zm6.565-.139h-.687l-1.18-4.922h.716l.891 3.826h.019l1.318-3.826h.66l1.318 3.826h.019l.891-3.826h.715l-1.18 4.922h-.686l-1.393-4.021h-.019l-1.402 4.021Zm6.295-5.785h-.836v-.808h.836v.808Zm-.047 5.785h-.724v-4.922h.724v4.922Zm3.464-4.922v.65h-1.207v3.148c0 .316.13.446.538.446h.409v.678h-.465c-.891 0-1.207-.298-1.207-1.133v-3.139h-.743v-.65h.743v-1.114h.724v1.114h1.208Zm1.614 4.922h-.724v-6.779h.724v2.312h.019c.278-.353.836-.594 1.365-.594 1.133 0 1.866.733 1.866 1.876v3.185h-.724v-3.093c0-.798-.464-1.29-1.226-1.29-.78 0-1.3.529-1.3 1.29v3.093Zm7.654 0h-.724v-6.779h.724v4.104h.018l2.145-2.247h.929l-1.83 1.904 1.95 3.018h-.854l-1.606-2.517h-.019l-.733.789v1.728Zm5.826.139c-1.365 0-2.275-1.049-2.275-2.6 0-1.551.92-2.6 2.275-2.6 1.328 0 2.201.984 2.201 2.442v.371h-3.742c.018.938.613 1.728 1.523 1.728.696 0 1.086-.26 1.504-.985l.603.362c-.427.845-1.142 1.282-2.089 1.282Zm-1.523-2.972h2.99c-.028-.882-.594-1.569-1.467-1.569-.854 0-1.504.743-1.523 1.569Zm5.481 2.833h-.724v-6.779h.724v6.779Zm1.941 0h-.724v-6.779h.724v6.779Zm2.303 2.089h-.753l1.059-2.489-1.913-4.522h.78l1.495 3.668h.019l1.495-3.668h.77l-2.952 7.011Zm8.097.139c-.947 0-1.69-.501-1.997-1.346l.66-.297c.297.696.668.975 1.337.975.798 0 1.272-.558 1.272-1.458v-.622h-.019c-.288.427-.808.659-1.458.659-1.3 0-2.2-1.077-2.2-2.6 0-1.532.9-2.6 2.21-2.6.575 0 1.114.241 1.448.659h.019v-.52h.724v5.07c0 1.244-.789 2.08-1.996 2.08Zm-.149-2.767c.789 0 1.421-.65 1.421-1.449v-.956c0-.799-.641-1.439-1.467-1.439-.892 0-1.486.77-1.486 1.922 0 1.161.604 1.922 1.532 1.922Zm4.049.539h-.724v-4.922h.687v.409h.019c.185-.307.547-.492 1.021-.492.176 0 .325.027.492.074l-.158.752a1.498 1.498 0 0 0-.483-.084c-.566 0-.854.381-.854 1.31v2.953Zm4.104.139c-1.365 0-2.275-1.049-2.275-2.6 0-1.551.919-2.6 2.275-2.6 1.328 0 2.2.984 2.2 2.442v.371h-3.742c.019.938.613 1.728 1.523 1.728.697 0 1.087-.26 1.504-.985l.604.362c-.427.845-1.142 1.282-2.089 1.282Zm-1.523-2.972h2.99c-.028-.882-.594-1.569-1.467-1.569-.855 0-1.505.743-1.523 1.569Zm6.755 2.972c-1.365 0-2.275-1.049-2.275-2.6 0-1.551.919-2.6 2.275-2.6 1.328 0 2.201.984 2.201 2.442v.371h-3.742c.018.938.612 1.728 1.522 1.728.697 0 1.087-.26 1.505-.985l.603.362c-.427.845-1.142 1.282-2.089 1.282Zm-1.523-2.972h2.99c-.028-.882-.594-1.569-1.467-1.569-.854 0-1.504.743-1.523 1.569Zm5.481 2.833h-.724v-4.922h.705v.455h.019c.297-.353.854-.594 1.384-.594 1.142 0 1.866.733 1.866 1.876v3.185h-.724v-3.093c0-.798-.465-1.29-1.226-1.29-.78 0-1.3.529-1.3 1.29v3.093Zm5.763 0h-1.105v-1.078h1.105v1.078Zm2.155 0h-1.105v-1.078h1.105v1.078Zm2.163 0h-1.105v-1.078h1.105v1.078Z"/><path fill="#0F0F0F" fill-opacity=".5" d="M145.777 151.429h-.762v-6.5h1.022l2.107 5.162h.019l2.108-5.162h1.021v6.5h-.77v-5.275h-.019l-2.191 5.275h-.325l-2.192-5.275h-.018v5.275Zm9.041.139c-1.393 0-2.312-1.049-2.312-2.6 0-1.551.919-2.6 2.312-2.6 1.393 0 2.321 1.049 2.321 2.6 0 1.551-.928 2.6-2.321 2.6Zm0-.678c.975 0 1.597-.752 1.597-1.922s-.622-1.922-1.597-1.922-1.588.752-1.588 1.922.613 1.922 1.588 1.922Zm4.075.539h-.724v-4.922h.687v.409h.018c.186-.307.548-.492 1.022-.492.176 0 .325.027.492.074l-.158.752a1.503 1.503 0 0 0-.483-.084c-.566 0-.854.381-.854 1.31v2.953Zm4.103.139c-1.365 0-2.275-1.049-2.275-2.6 0-1.551.92-2.6 2.275-2.6 1.328 0 2.201.984 2.201 2.442v.371h-3.742c.019.938.613 1.728 1.523 1.728.696 0 1.086-.26 1.504-.985l.604.362c-.427.845-1.142 1.282-2.09 1.282Zm-1.522-2.972h2.99c-.028-.882-.595-1.569-1.468-1.569-.854 0-1.504.743-1.522 1.569Z"/><mask id="d" fill="#fff"><path d="M18.143 160.143h165.714v24.428H18.143v-24.428Z"/></mask><path fill="#0F0F0F" fill-opacity=".1" d="M18.143 160.143v.714h165.714v-1.428H18.143v.714Z" mask="url(#d)"/><path fill="#0F0F0F" d="M22.56 174.857h-.762v-6.5h1.022l2.107 5.163h.019l2.108-5.163h1.021v6.5h-.77v-5.274h-.02l-2.19 5.274h-.325l-2.192-5.274h-.018v5.274Zm9.04.139c-1.392 0-2.311-1.049-2.311-2.6 0-1.55.919-2.6 2.312-2.6 1.393 0 2.321 1.05 2.321 2.6 0 1.551-.928 2.6-2.321 2.6Zm0-.677c.976 0 1.598-.753 1.598-1.923s-.622-1.922-1.597-1.922-1.588.752-1.588 1.922.613 1.923 1.588 1.923Zm5.276.677c-1.29 0-2.2-1.058-2.2-2.6 0-1.541.91-2.6 2.21-2.6.612 0 1.132.27 1.448.66h.018v-2.377h.725v6.778h-.697v-.492h-.019c-.325.399-.872.631-1.485.631Zm.056-.677c.78 0 1.42-.641 1.42-1.449v-.956c0-.799-.64-1.44-1.467-1.44-.882 0-1.486.762-1.486 1.922 0 1.161.604 1.923 1.532 1.923Zm5.459.677c-1.365 0-2.275-1.049-2.275-2.6 0-1.55.92-2.6 2.275-2.6 1.328 0 2.2.985 2.2 2.443v.371H40.85c.02.938.613 1.727 1.523 1.727.697 0 1.087-.26 1.505-.984l.603.362c-.427.845-1.142 1.281-2.089 1.281Zm-1.523-2.971h2.99c-.028-.882-.594-1.569-1.467-1.569-.854 0-1.504.743-1.523 1.569Zm5.48 2.832h-.723v-6.778h.724v6.778Zm41.926 0h-.762v-6.5h.762v6.5Zm2.135 0h-.725v-4.921h.715v.38h.019c.26-.325.734-.52 1.198-.52.557 0 1.04.26 1.29.632h.02a1.759 1.759 0 0 1 1.373-.632c.938 0 1.718.623 1.718 1.635v3.426h-.724v-3.333c0-.632-.427-1.05-1.04-1.05-.64 0-1.059.455-1.059 1.115v3.268h-.696v-3.333c0-.632-.436-1.05-1.04-1.05-.64 0-1.05.455-1.05 1.124v3.259Zm8.214.139c-.994 0-1.616-.538-1.616-1.392 0-.836.492-1.263 1.727-1.56.947-.233 1.254-.437 1.254-.836 0-.455-.4-.752-1.012-.752-.65 0-1.105.399-1.235 1.058l-.734-.139c.167-.966.938-1.579 1.969-1.579 1.105 0 1.773.613 1.773 1.598v3.463h-.678v-.52h-.018c-.297.409-.836.659-1.43.659Zm.055-.677c.79 0 1.347-.474 1.347-1.124v-1.105h-.019c-.102.241-.418.409-1.077.576-.863.223-1.198.464-1.198.891 0 .492.335.762.948.762Zm5.468 2.767c-.948 0-1.69-.502-1.997-1.347l.659-.297c.298.697.669.975 1.338.975.798 0 1.272-.557 1.272-1.458v-.622h-.019c-.288.427-.808.659-1.458.659-1.3 0-2.2-1.077-2.2-2.6 0-1.532.9-2.6 2.21-2.6.575 0 1.114.242 1.448.66h.019v-.52h.724v5.07c0 1.244-.789 2.08-1.996 2.08Zm-.149-2.767c.789 0 1.421-.65 1.421-1.449v-.956c0-.799-.641-1.44-1.467-1.44-.892 0-1.486.771-1.486 1.922 0 1.161.603 1.923 1.532 1.923Zm5.414.677c-1.365 0-2.275-1.049-2.275-2.6 0-1.55.919-2.6 2.275-2.6 1.328 0 2.201.985 2.201 2.443v.371h-3.742c.018.938.613 1.727 1.523 1.727.696 0 1.086-.26 1.504-.984l.603.362c-.427.845-1.142 1.281-2.089 1.281Zm-1.523-2.971h2.99c-.028-.882-.594-1.569-1.467-1.569-.854 0-1.504.743-1.523 1.569Zm5.481 2.832h-.724v-4.921h.706v.455h.018c.297-.353.854-.595 1.384-.595 1.142 0 1.866.734 1.866 1.876v3.185h-.724v-3.092c0-.799-.464-1.291-1.226-1.291-.78 0-1.3.53-1.3 1.291v3.092Zm9.028.13c-1.319 0-2.145-.798-2.284-2.201l.705-.12c.121 1.095.641 1.643 1.579 1.643.808 0 1.337-.492 1.337-1.216 0-.845-.483-1.244-1.467-1.244h-.446v-.641h.446c.743 0 1.309-.446 1.309-1.012 0-.641-.455-1.068-1.198-1.068-.761 0-1.3.473-1.402 1.207l-.687-.102c.139-1.049.975-1.755 2.089-1.755 1.133 0 1.913.678 1.913 1.662 0 .529-.343 1.031-.956 1.319v.018c.687.251 1.123.789 1.123 1.616 0 1.133-.826 1.894-2.061 1.894Z"/><mask id="e" fill="#fff"><path d="M18.143 184.571h165.714V209H18.143v-24.429Z"/></mask><path fill="#0F0F0F" fill-opacity=".1" d="M18.143 184.571v.715h165.714v-1.429H18.143v.714Z" mask="url(#e)"/><path fill="#0F0F0F" d="M26.46 199.286h-.79l-.454-1.31H22.29l-.455 1.31h-.79l2.331-6.5h.752l2.331 6.5Zm-2.711-5.451-1.217 3.473h2.452l-1.217-3.473h-.018Zm5.09 5.59c-1.272 0-2.07-.659-2.182-1.82l.706-.13c.149.901.576 1.272 1.476 1.272.669 0 1.087-.334 1.087-.78 0-.39-.297-.603-1.356-.919-1.235-.372-1.68-.724-1.68-1.412 0-.78.714-1.411 1.67-1.411 1.032 0 1.765.566 1.95 1.467l-.705.158c-.167-.622-.576-.947-1.244-.947-.548 0-.947.325-.947.706 0 .343.297.52 1.197.798 1.375.427 1.848.817 1.848 1.56 0 .845-.724 1.458-1.82 1.458Zm3.482 1.95h-.724v-7.011h.724v.52h.019c.315-.39.835-.659 1.439-.659 1.3 0 2.22 1.059 2.22 2.6 0 1.541-.92 2.6-2.202 2.6-.612 0-1.15-.26-1.457-.631h-.019v2.581Zm1.42-2.628c.93 0 1.533-.761 1.533-1.922s-.604-1.922-1.495-1.922a1.44 1.44 0 0 0-1.458 1.439v.957c0 .807.64 1.448 1.42 1.448Zm5.295.678c-1.365 0-2.275-1.049-2.275-2.6 0-1.551.92-2.6 2.275-2.6 1.328 0 2.201.984 2.201 2.442v.372h-3.742c.018.937.613 1.727 1.523 1.727.696 0 1.086-.26 1.504-.985l.604.363c-.428.845-1.143 1.281-2.09 1.281Zm-1.523-2.971h2.99c-.027-.883-.594-1.57-1.467-1.57-.854 0-1.504.743-1.523 1.57Zm6.756 2.971c-1.347 0-2.276-1.049-2.276-2.6 0-1.551.93-2.6 2.276-2.6 1.132 0 1.959.696 2.145 1.792l-.706.149c-.14-.808-.669-1.263-1.44-1.263-.928 0-1.55.761-1.55 1.922s.622 1.922 1.55 1.922c.771 0 1.3-.455 1.44-1.263l.706.149c-.186 1.096-1.013 1.792-2.145 1.792Zm5.299-5.061v.65h-1.207v3.148c0 .316.13.446.538.446h.409v.678h-.464c-.892 0-1.207-.297-1.207-1.133v-3.139h-.743v-.65h.743v-1.114h.724v1.114h1.207Zm6.485 2.229v.018l1.43 2.675h-.9l-1.375-2.637h-1.3v2.637h-.761v-6.5h2.368c1.355 0 2.163.724 2.163 1.922 0 1.031-.603 1.718-1.625 1.885Zm-2.145-3.083v2.414h1.542c.956 0 1.458-.418 1.458-1.216 0-.789-.492-1.198-1.458-1.198h-1.542Zm6.142 5.915c-.994 0-1.616-.539-1.616-1.393 0-.836.492-1.263 1.727-1.56.947-.232 1.254-.436 1.254-.836 0-.455-.4-.752-1.012-.752-.65 0-1.105.4-1.235 1.059l-.734-.139c.167-.966.938-1.579 1.969-1.579 1.105 0 1.773.613 1.773 1.597v3.464h-.678v-.52h-.018c-.297.408-.836.659-1.43.659Zm.055-.678c.79 0 1.347-.473 1.347-1.123v-1.105h-.019c-.102.241-.418.408-1.077.575-.863.223-1.198.465-1.198.892 0 .492.335.761.947.761Zm5.405-4.383v.65h-1.208v3.148c0 .316.13.446.54.446h.408v.678h-.465c-.891 0-1.207-.297-1.207-1.133v-3.139h-.743v-.65h.743v-1.114h.724v1.114h1.208Zm1.66-.863h-.835v-.808h.836v.808Zm-.046 5.785H66.4v-4.922h.724v4.922Zm3.343.139c-1.393 0-2.312-1.049-2.312-2.6 0-1.551.92-2.6 2.312-2.6 1.393 0 2.322 1.049 2.322 2.6 0 1.551-.929 2.6-2.322 2.6Zm0-.678c.975 0 1.597-.752 1.597-1.922s-.622-1.922-1.597-1.922-1.588.752-1.588 1.922.613 1.922 1.588 1.922Zm18.782-5.841c1.42 0 2.34.985 2.34 2.898 0 2.516-.687 3.621-2.275 3.621-1.04 0-1.764-.631-2.006-1.597l.678-.177c.223.771.696 1.124 1.328 1.124.993 0 1.486-.687 1.532-2.396h-.01c-.306.483-.863.78-1.624.78-1.347 0-2.173-.826-2.173-2.135 0-1.235.938-2.118 2.21-2.118Zm0 3.603c.882 0 1.486-.575 1.486-1.439 0-.891-.595-1.514-1.486-1.514-.9 0-1.486.604-1.486 1.468 0 .919.585 1.485 1.486 1.485Zm5.277.037-1.495 1.523-.455-.455 1.523-1.504-1.523-1.504.455-.455 1.495 1.523 1.504-1.523.455.455-1.522 1.504 1.522 1.504-.455.455-1.504-1.523Zm4.977 2.74h-.724v-5.442l-1.403.91v-.743l1.486-.965h.64v6.24Zm3.995-4.151c1.216 0 2.126.901 2.126 2.136 0 1.309-.975 2.154-2.2 2.154-1.635 0-2.563-1.235-2.563-3.166 0-1.96 1.096-3.353 2.6-3.353 1.021 0 1.811.585 2.061 1.663l-.687.167c-.223-.817-.687-1.152-1.374-1.152-1.031 0-1.802.994-1.848 2.526h.037c.344-.566.984-.975 1.848-.975Zm-.074 3.612c.789 0 1.476-.538 1.476-1.476 0-.92-.622-1.505-1.486-1.505-.937 0-1.569.65-1.569 1.505 0 .835.613 1.476 1.579 1.476Z"/><path fill="#0F0F0F" fill-opacity=".05" d="M9.571 232.429c0-6.628 5.373-12 12-12h159c6.628 0 12 5.372 12 12V237c0 6.627-5.372 12-12 12h-159c-6.627 0-12-5.373-12-12v-4.571Z"/><path fill="#FF3C00" stroke="#FF3C00" stroke-width=".714" d="M25.054 238.176c.195.098.464.181.874.181h-.071c-.37 0-.627-.059-.82-.188l.017.007Zm1.753-1.662v.001l2.763 1.77-.045.029-.403-.258-1.787-1.142-.55-.352v-.061l.022.013Zm-2.407.87.008.014c.232.387.395.553.548.707a2.18 2.18 0 0 1-.427-.479l-.152-.239-.613-1.104.02-.036.616 1.137Zm1.528-6.098c-.31 0-.595.037-.853.214-.183.125-.328.304-.465.523l-.137.232v.003l-2.708 4.987a2.11 2.11 0 0 1-.187.26c.063-.086.122-.177.17-.274v-.001l2.708-4.988v.001c.21-.385.374-.608.57-.745.186-.131.445-.212.902-.212Zm-6.071-.072Zm6.929 7.143v1.738l-.046.031-.026.015v-1.784h.072Zm-.072-8.973.315.198-.243-.15v3.522l-.072.044v-3.614Z"/><path fill="#0F0F0F" d="M40.746 237.214h-.79l-.455-1.309h-2.925l-.455 1.309h-.789l2.33-6.5h.753l2.33 6.5Zm-2.712-5.45-1.216 3.472h2.451l-1.216-3.472h-.019Zm4.093 5.45h-.724v-4.921h.687v.408h.018c.186-.306.548-.492 1.022-.492.176 0 .325.028.492.075l-.158.752a1.504 1.504 0 0 0-.483-.084c-.566 0-.854.381-.854 1.309v2.953Zm4.543-4.921v.65h-1.208v3.148c0 .315.13.445.54.445h.408v.678h-.465c-.891 0-1.207-.297-1.207-1.133v-3.138h-.743v-.65h.743v-1.114h.724v1.114h1.208Zm5.547 4.921H50.25v-6.5h2.024c1.643 0 2.804 1.189 2.804 3.241 0 2.294-1.16 3.259-2.86 3.259Zm-1.207-5.775v5.051h1.16c1.32 0 2.136-.696 2.136-2.535 0-1.662-.817-2.516-2.08-2.516H51.01Zm5.872-.01h-.836v-.808h.836v.808Zm-.046 5.785h-.725v-4.921h.725v4.921Zm1.94 0h-.724v-4.921h.687v.408h.019c.185-.306.547-.492 1.021-.492.176 0 .325.028.492.075l-.158.752a1.504 1.504 0 0 0-.483-.084c-.566 0-.854.381-.854 1.309v2.953Zm4.104.14c-1.365 0-2.275-1.05-2.275-2.6 0-1.551.919-2.6 2.275-2.6 1.327 0 2.2.984 2.2 2.442v.371h-3.742c.019.938.613 1.727 1.523 1.727.697 0 1.087-.26 1.504-.984l.604.362c-.427.845-1.142 1.282-2.09 1.282Zm-1.523-2.972h2.99c-.028-.882-.594-1.569-1.467-1.569-.855 0-1.505.743-1.523 1.569Zm6.755 2.972c-1.346 0-2.275-1.05-2.275-2.6 0-1.551.928-2.6 2.275-2.6 1.133 0 1.96.696 2.145 1.792l-.706.148c-.139-.808-.668-1.263-1.439-1.263-.929 0-1.55.762-1.55 1.923 0 1.16.621 1.922 1.55 1.922.77 0 1.3-.455 1.44-1.263l.705.148c-.186 1.096-1.012 1.793-2.145 1.793Zm5.3-5.061v.65h-1.208v3.148c0 .315.13.445.539.445h.408v.678h-.464c-.891 0-1.207-.297-1.207-1.133v-3.138h-.743v-.65h.743v-1.114h.724v1.114h1.207Zm2.735 5.061c-1.393 0-2.312-1.05-2.312-2.6 0-1.551.92-2.6 2.312-2.6 1.393 0 2.322 1.049 2.322 2.6 0 1.55-.929 2.6-2.322 2.6Zm0-.678c.975 0 1.597-.752 1.597-1.922s-.622-1.923-1.597-1.923-1.588.753-1.588 1.923.613 1.922 1.588 1.922Zm4.075.538h-.724v-4.921h.687v.408h.019c.185-.306.547-.492 1.021-.492.176 0 .325.028.492.075l-.158.752a1.504 1.504 0 0 0-.483-.084c-.566 0-.854.381-.854 1.309v2.953Z"/><path fill="#0F0F0F" fill-opacity=".05" d="M9.571 266.714c0-6.627 5.373-12 12-12h159c6.628 0 12 5.373 12 12v4.572c0 6.627-5.372 12-12 12h-159c-6.627 0-12-5.373-12-12v-4.572Z"/><path fill="#FF3C00" fill-rule="evenodd" d="M21 264h-.715v2.143h-2.142v.714h2.142v5.714H26v2.143h.714v-2.143h2.143v-.714h-2.143v-5.714H21V264Zm5 2.857h-5v5h5v-5Z" clip-rule="evenodd"/><path fill="#0F0F0F" d="M38.99 268.807v.019l1.43 2.674h-.9l-1.374-2.637h-1.3v2.637h-.762V265h2.368c1.356 0 2.164.724 2.164 1.922 0 1.031-.604 1.718-1.625 1.885Zm-2.144-3.083v2.415h1.541c.956 0 1.458-.418 1.458-1.217 0-.789-.492-1.198-1.458-1.198h-1.541Zm6.619 5.915c-1.365 0-2.275-1.049-2.275-2.6 0-1.55.92-2.6 2.275-2.6 1.328 0 2.2.985 2.2 2.442v.372h-3.742c.02.938.613 1.727 1.523 1.727.697 0 1.087-.26 1.505-.984l.603.362c-.427.845-1.142 1.281-2.09 1.281Zm-1.523-2.971h2.99c-.028-.882-.594-1.569-1.467-1.569-.854 0-1.504.742-1.523 1.569Zm5.717 2.832h-.724v-4.271h-.845v-.65h.845v-.539c0-.631.409-1.04 1.105-1.04h.724v.678h-.64c-.316 0-.465.148-.465.464v.437h1.245v.65h-1.245v4.271Zm2.72 0h-.724v-4.921h.687v.408h.019c.185-.306.547-.492 1.02-.492.177 0 .326.028.493.074l-.158.752a1.529 1.529 0 0 0-.483-.083c-.566 0-.854.381-.854 1.309v2.953Zm3.354.139c-.994 0-1.616-.538-1.616-1.393 0-.835.492-1.262 1.727-1.56.947-.232 1.254-.436 1.254-.835 0-.455-.4-.752-1.012-.752-.65 0-1.105.399-1.236 1.058l-.733-.139c.167-.966.938-1.579 1.969-1.579 1.105 0 1.773.613 1.773 1.597v3.464h-.678v-.52h-.018c-.297.409-.836.659-1.43.659Zm.055-.678c.79 0 1.347-.473 1.347-1.123v-1.105h-.019c-.102.241-.418.408-1.077.576-.864.222-1.198.464-1.198.891 0 .492.334.761.947.761Zm3.973.539h-.725v-4.921h.715v.38h.019c.26-.325.733-.52 1.198-.52.557 0 1.04.26 1.29.632h.019c.334-.4.817-.632 1.374-.632.938 0 1.718.622 1.718 1.635v3.426h-.724v-3.334c0-.631-.427-1.049-1.04-1.049-.64 0-1.059.455-1.059 1.114v3.269h-.696v-3.334c0-.631-.437-1.049-1.04-1.049-.64 0-1.05.455-1.05 1.124v3.259Zm8.873.139c-1.365 0-2.275-1.049-2.275-2.6 0-1.55.92-2.6 2.275-2.6 1.328 0 2.2.985 2.2 2.442v.372h-3.742c.019.938.613 1.727 1.523 1.727.697 0 1.087-.26 1.505-.984l.603.362c-.427.845-1.142 1.281-2.09 1.281Zm-1.523-2.971h2.99c-.028-.882-.594-1.569-1.467-1.569-.854 0-1.504.742-1.523 1.569Z"/><path fill="#0F0F0F" fill-opacity=".05" d="M9.571 301c0-6.627 5.373-12 12-12h159c6.628 0 12 5.373 12 12v4.571c0 6.628-5.372 12-12 12h-159c-6.627 0-12-5.372-12-12V301Z"/><path stroke="#FF3C00" stroke-width=".714" d="m28.143 299-8.572 8.571M22.428 299l-2.857 2.857m8.572 2.857-2.857 2.857m2.857-5.714-5.715 5.714M25.286 299l-5.715 5.714"/><path fill="#0F0F0F" d="M38.99 303.093v.018l1.43 2.675h-.9l-1.374-2.637h-1.3v2.637h-.762v-6.5h2.368c1.356 0 2.164.724 2.164 1.922 0 1.031-.604 1.718-1.625 1.885Zm-2.144-3.083v2.414h1.541c.956 0 1.458-.418 1.458-1.216 0-.789-.492-1.198-1.458-1.198h-1.541Zm6.619 5.915c-1.365 0-2.275-1.049-2.275-2.6 0-1.551.92-2.6 2.275-2.6 1.328 0 2.2.984 2.2 2.442v.372h-3.742c.02.937.613 1.727 1.523 1.727.697 0 1.087-.26 1.505-.985l.603.363c-.427.845-1.142 1.281-2.09 1.281Zm-1.523-2.971h2.99c-.028-.883-.594-1.57-1.467-1.57-.854 0-1.504.743-1.523 1.57Zm6.913-2.09v.65h-1.207v3.148c0 .316.13.446.538.446h.409v.678h-.464c-.892 0-1.207-.297-1.207-1.133v-3.139h-.743v-.65h.743v-1.114h.724v1.114h1.207Zm2.699 5.061c-1.365 0-2.275-1.049-2.275-2.6 0-1.551.919-2.6 2.275-2.6 1.328 0 2.2.984 2.2 2.442v.372h-3.742c.019.937.613 1.727 1.523 1.727.697 0 1.087-.26 1.504-.985l.604.363c-.427.845-1.142 1.281-2.09 1.281Zm-1.523-2.971h2.99c-.028-.883-.595-1.57-1.467-1.57-.855 0-1.505.743-1.523 1.57Zm4.763 2.832h-.854l1.69-2.507-1.635-2.415h.855l1.207 1.848h.018l1.217-1.848h.854l-1.643 2.415 1.699 2.507h-.854l-1.273-1.941h-.018l-1.263 1.941Zm6.403-4.922v.65H59.99v3.148c0 .316.13.446.538.446h.409v.678h-.465c-.891 0-1.207-.297-1.207-1.133v-3.139h-.743v-.65h.743v-1.114h.725v1.114h1.207Zm2.58 5.061c-1.096 0-1.736-.678-1.736-1.866v-3.195h.724v3.092c0 .873.39 1.291 1.226 1.291.752 0 1.235-.52 1.235-1.291v-3.092h.724v4.922h-.706v-.455h-.018c-.307.362-.855.594-1.449.594Zm4.122-.139h-.725v-4.922h.688v.409h.018c.186-.307.548-.492 1.022-.492.176 0 .325.028.492.074l-.158.752a1.5 1.5 0 0 0-.483-.083c-.567 0-.854.38-.854 1.309v2.953Zm4.103.139c-1.365 0-2.275-1.049-2.275-2.6 0-1.551.92-2.6 2.275-2.6 1.328 0 2.2.984 2.2 2.442v.372h-3.741c.018.937.613 1.727 1.523 1.727.696 0 1.086-.26 1.504-.985l.603.363c-.427.845-1.142 1.281-2.089 1.281Zm-1.523-2.971h2.99c-.028-.883-.594-1.57-1.467-1.57-.854 0-1.504.743-1.523 1.57Z"/><path fill="#0F0F0F" fill-opacity=".05" d="M9.571 335.286c0-6.628 5.373-12 12-12h159c6.628 0 12 5.372 12 12v4.571c0 6.628-5.372 12-12 12h-159c-6.627 0-12-5.372-12-12v-4.571Z"/><path fill="#FF3C00" fill-rule="evenodd" d="M24.614 331.9h5v5h-2.143v2.143h-2.143v2.142h-2.142v2.143h-5v-5h2.142v-2.143h2.143v-2.142h2.143V331.9Zm-3.571 6.428h2.143v2.143h1.428V336.9h-3.571v1.428Zm7.857-2.143h-1.43v-2.142h-2.143v-1.429H28.9v3.571Zm-3.572 2.143h1.429v-3.571h-3.572v1.428h2.143v2.143Zm-6.428 4.286v-3.571h3.571v3.571H18.9Z" clip-rule="evenodd"/><path fill="#0F0F0F" d="M36.846 340.071h-.762v-6.5h1.022l2.108 5.163h.018l2.108-5.163h1.021v6.5h-.77v-5.274h-.019l-2.191 5.274h-.325l-2.192-5.274h-.018v5.274Zm8.345.14c-.994 0-1.616-.539-1.616-1.393 0-.836.492-1.263 1.727-1.56.947-.232 1.254-.437 1.254-.836 0-.455-.4-.752-1.013-.752-.65 0-1.105.399-1.235 1.059l-.733-.14c.167-.965.938-1.578 1.968-1.578 1.105 0 1.774.613 1.774 1.597v3.463h-.678v-.52h-.019c-.297.409-.835.66-1.43.66Zm.055-.678c.79 0 1.347-.474 1.347-1.124v-1.105h-.019c-.102.242-.418.409-1.077.576-.864.223-1.198.464-1.198.891 0 .493.334.762.947.762Zm3.972.538h-.724v-6.778h.724v4.104h.019l2.145-2.247h.928l-1.829 1.904 1.95 3.017h-.854l-1.606-2.516h-.02l-.733.789v1.727Zm5.827.14c-1.365 0-2.275-1.05-2.275-2.6 0-1.551.92-2.6 2.275-2.6 1.328 0 2.2.984 2.2 2.442v.371h-3.742c.019.938.613 1.727 1.523 1.727.697 0 1.087-.26 1.505-.984l.603.362c-.427.845-1.142 1.282-2.09 1.282Zm-1.523-2.972h2.99c-.028-.882-.594-1.569-1.467-1.569-.854 0-1.504.743-1.523 1.569Zm9.569 2.832h-.817l-2.34-6.5h.808l1.931 5.479h.019l1.94-5.479h.799l-2.34 6.5Zm3.872.14c-.994 0-1.616-.539-1.616-1.393 0-.836.492-1.263 1.727-1.56.948-.232 1.254-.437 1.254-.836 0-.455-.4-.752-1.012-.752-.65 0-1.105.399-1.235 1.059l-.734-.14c.167-.965.938-1.578 1.969-1.578 1.105 0 1.773.613 1.773 1.597v3.463h-.677v-.52h-.019c-.297.409-.836.66-1.43.66Zm.056-.678c.789 0 1.346-.474 1.346-1.124v-1.105h-.018c-.103.242-.418.409-1.078.576-.863.223-1.197.464-1.197.891 0 .493.334.762.947.762Zm3.972.538h-.725v-4.921h.688v.409h.018c.186-.307.548-.493 1.022-.493.176 0 .325.028.492.075l-.158.752a1.504 1.504 0 0 0-.483-.084c-.566 0-.854.381-.854 1.31v2.952Zm3.066-5.785h-.836v-.807h.836v.807Zm-.047 5.785h-.724v-4.921h.724v4.921Zm2.647.14c-.994 0-1.616-.539-1.616-1.393 0-.836.492-1.263 1.727-1.56.947-.232 1.254-.437 1.254-.836 0-.455-.4-.752-1.012-.752-.65 0-1.105.399-1.235 1.059l-.734-.14c.167-.965.938-1.578 1.969-1.578 1.105 0 1.773.613 1.773 1.597v3.463h-.678v-.52h-.018c-.297.409-.836.66-1.43.66Zm.056-.678c.789 0 1.346-.474 1.346-1.124v-1.105h-.019c-.102.242-.418.409-1.077.576-.863.223-1.198.464-1.198.891 0 .493.335.762.948.762Zm5.404-4.383v.65H80.91v3.148c0 .316.13.446.538.446h.409v.677h-.465c-.89 0-1.207-.297-1.207-1.132V335.8h-.743v-.65h.743v-1.114h.725v1.114h1.207Zm1.66-.864h-.835v-.807h.836v.807Zm-.046 5.785h-.724v-4.921h.724v4.921Zm3.343.14c-1.393 0-2.312-1.05-2.312-2.6 0-1.551.92-2.6 2.312-2.6 1.393 0 2.322 1.049 2.322 2.6 0 1.55-.929 2.6-2.322 2.6Zm0-.678c.975 0 1.597-.752 1.597-1.922s-.622-1.922-1.597-1.922-1.588.752-1.588 1.922.613 1.922 1.588 1.922Zm4.075.538h-.724v-4.921h.706v.455h.018c.297-.353.854-.594 1.384-.594 1.142 0 1.866.733 1.866 1.875v3.185h-.724v-3.092c0-.798-.464-1.29-1.226-1.29-.78 0-1.3.529-1.3 1.29v3.092Zm6.33.14c-1.272 0-2.07-.66-2.182-1.82l.706-.13c.148.9.575 1.272 1.476 1.272.669 0 1.087-.334 1.087-.78 0-.39-.298-.604-1.356-.919-1.235-.372-1.68-.725-1.68-1.412 0-.78.714-1.411 1.67-1.411 1.031 0 1.765.566 1.95 1.467l-.705.158c-.167-.622-.576-.947-1.244-.947-.548 0-.948.325-.948.705 0 .344.297.52 1.198.799 1.375.427 1.848.817 1.848 1.56 0 .845-.724 1.458-1.82 1.458Z"/><path fill="#0F0F0F" fill-opacity=".05" d="M9.571 369.571c0-6.627 5.373-12 12-12h159c6.628 0 12 5.373 12 12v4.572c0 6.627-5.372 12-12 12h-159c-6.627 0-12-5.373-12-12v-4.572Z"/><path fill="#FF3C00" fill-rule="evenodd" d="m22.428 369.714 3.75 2.165-3.75 2.165v-4.33Zm.715 1.238 1.607.927-1.607.928v-1.855Z" clip-rule="evenodd"/><path fill="#FF3C00" fill-rule="evenodd" d="M18.143 376.143v-8.572H29.57v8.572H18.143Zm.714-7.857h10v7.143h-10v-7.143Z" clip-rule="evenodd"/><path fill="#0F0F0F" d="M38.49 374.357h-.818l-2.34-6.5h.808l1.931 5.479h.019l1.94-5.479h.8l-2.34 6.5Zm3.765-5.785h-.836v-.808h.836v.808Zm-.046 5.785h-.725v-4.921h.725v4.921Zm3.231.139c-1.29 0-2.2-1.058-2.2-2.6 0-1.541.91-2.6 2.21-2.6.612 0 1.132.27 1.448.66h.018v-2.377h.725v6.778h-.697v-.492h-.018c-.325.399-.873.631-1.486.631Zm.056-.677c.78 0 1.42-.641 1.42-1.449v-.956c0-.799-.64-1.44-1.467-1.44-.882 0-1.485.762-1.485 1.922 0 1.161.603 1.923 1.532 1.923Zm5.46.677c-1.366 0-2.276-1.049-2.276-2.6 0-1.55.92-2.6 2.275-2.6 1.328 0 2.2.985 2.2 2.443v.371h-3.741c.018.938.613 1.727 1.523 1.727.696 0 1.086-.26 1.504-.984l.603.362c-.427.845-1.142 1.281-2.089 1.281Zm-1.524-2.971h2.99c-.028-.882-.594-1.569-1.467-1.569-.854 0-1.504.743-1.523 1.569Zm6.793 2.971c-1.393 0-2.313-1.049-2.313-2.6 0-1.55.92-2.6 2.313-2.6 1.392 0 2.321 1.05 2.321 2.6 0 1.551-.929 2.6-2.321 2.6Zm0-.677c.975 0 1.597-.753 1.597-1.923s-.622-1.922-1.597-1.922-1.588.752-1.588 1.922.613 1.923 1.588 1.923Z"/><path fill="#0F0F0F" fill-opacity=".05" d="M9.571 403.857c0-6.627 5.373-12 12-12h159c6.628 0 12 5.373 12 12v4.572c0 6.627-5.372 12-12 12h-159c-6.627 0-12-5.373-12-12v-4.572Z"/><path fill="#FF3C00" fill-rule="evenodd" d="M23.187 404.617c.214-.128.39-.198.586-.226l1.922 1.922c-.028.2-.099.377-.225.584v.002a2.35 2.35 0 0 1-.143.209l-2.349-2.349a2.27 2.27 0 0 1 .209-.142Zm2.857 2.629a2.12 2.12 0 0 0 .323-.902l3.287-2.988-.451-.497-3.15 2.863-1.69-1.69 2.857-3.142-.497-.451-2.982 3.28c-.33.036-.605.147-.899.322h-.001c-.63.38-1.093.988-1.28 1.703l-.843 3.214-.146.556.556-.146 3.214-.843a2.824 2.824 0 0 0 1.702-1.279Zm-3.552-1.963a2.12 2.12 0 0 0-.282.631l-.045.174 1.833 1.833.174-.045c.226-.06.439-.155.631-.282l-2.311-2.311Zm.706 2.848-1.243-1.243-.442 1.685 1.685-.442Zm-4.655-7.66h-.357V411.9h11.428v-5.715H28.9v5h-10v-10h5.007v-.714h-5.364Z" clip-rule="evenodd"/><path fill="#0F0F0F" d="M38.99 405.95v.019l1.43 2.674h-.9l-1.374-2.637h-1.3v2.637h-.762v-6.5h2.368c1.356 0 2.164.724 2.164 1.922 0 1.031-.604 1.718-1.625 1.885Zm-2.144-3.083v2.414h1.541c.956 0 1.458-.417 1.458-1.216 0-.789-.492-1.198-1.458-1.198h-1.541Zm6.619 5.915c-1.365 0-2.275-1.049-2.275-2.6 0-1.551.92-2.6 2.275-2.6 1.328 0 2.2.984 2.2 2.442v.372h-3.742c.02.938.613 1.727 1.523 1.727.697 0 1.087-.26 1.505-.984l.603.362c-.427.845-1.142 1.281-2.09 1.281Zm-1.523-2.971h2.99c-.028-.882-.594-1.57-1.467-1.57-.854 0-1.504.743-1.523 1.57Zm6.913-2.09v.65h-1.207v3.148c0 .316.13.446.538.446h.409v.678h-.464c-.892 0-1.207-.297-1.207-1.133v-3.139h-.743v-.65h.743v-1.114h.724v1.114h1.207Zm2.736 5.061c-1.393 0-2.312-1.049-2.312-2.6 0-1.551.919-2.6 2.312-2.6 1.393 0 2.321 1.049 2.321 2.6 0 1.551-.928 2.6-2.321 2.6Zm0-.678c.975 0 1.597-.752 1.597-1.922s-.622-1.922-1.597-1.922-1.588.752-1.588 1.922.613 1.922 1.588 1.922Zm5.04.678c-1.095 0-1.736-.678-1.736-1.866v-3.195h.724v3.093c0 .872.39 1.29 1.226 1.29.752 0 1.235-.52 1.235-1.29v-3.093h.724v4.922H58.1v-.455h-.019c-.306.362-.854.594-1.448.594Zm5.487 0c-1.346 0-2.275-1.049-2.275-2.6 0-1.551.928-2.6 2.275-2.6 1.133 0 1.96.697 2.145 1.792l-.706.149c-.14-.808-.668-1.263-1.44-1.263-.928 0-1.55.761-1.55 1.922s.622 1.922 1.55 1.922c.772 0 1.3-.455 1.44-1.263l.706.149c-.186 1.096-1.012 1.792-2.145 1.792Zm3.867-.139h-.724v-6.779h.724v2.312h.019c.278-.352.835-.594 1.365-.594 1.133 0 1.866.734 1.866 1.876v3.185h-.724v-3.092c0-.799-.464-1.291-1.226-1.291-.78 0-1.3.529-1.3 1.291v3.092Z"/><path fill="#0F0F0F" fill-opacity=".05" d="M9.571 438.143c0-6.628 5.373-12 12-12h159c6.628 0 12 5.372 12 12v4.571c0 6.628-5.372 12-12 12h-159c-6.627 0-12-5.372-12-12v-4.571Z"/><rect width="5.714" height="10" x="25.729" y="434.516" stroke="#FF3C00" stroke-width=".714" rx="1.071" transform="rotate(45 25.729 434.516)"/><path fill="#FF3C00" d="m20.678 440.07 3.536 3.536-.505.505-3.536-3.535z"/><path fill="#0F0F0F" d="M38.443 443.068c-1.662 0-2.74-1.328-2.74-3.389 0-2.034 1.096-3.39 2.74-3.39 1.337 0 2.303.882 2.488 2.266l-.761.13c-.186-1.086-.78-1.671-1.727-1.671-1.217 0-1.969 1.021-1.969 2.665 0 1.662.743 2.665 1.969 2.665 1.003 0 1.597-.632 1.718-1.82l.789.102c-.12 1.513-1.068 2.442-2.507 2.442Zm4.22-.139h-.725v-6.779h.724v6.779Zm3.305.139c-1.365 0-2.275-1.049-2.275-2.6 0-1.551.919-2.6 2.275-2.6 1.328 0 2.2.984 2.2 2.442v.371h-3.742c.019.938.613 1.728 1.523 1.728.697 0 1.087-.26 1.504-.985l.604.362c-.427.845-1.142 1.282-2.09 1.282Zm-1.523-2.972h2.99c-.028-.882-.594-1.569-1.467-1.569-.855 0-1.505.743-1.523 1.569Zm6.096 2.972c-.994 0-1.616-.539-1.616-1.393 0-.836.492-1.263 1.727-1.56.947-.232 1.254-.436 1.254-.836 0-.455-.4-.752-1.012-.752-.65 0-1.105.399-1.235 1.059l-.734-.14c.167-.965.938-1.578 1.969-1.578 1.105 0 1.773.613 1.773 1.597v3.464h-.678v-.52h-.018c-.297.408-.836.659-1.43.659Zm.055-.678c.79 0 1.347-.474 1.347-1.124v-1.105h-.019c-.102.242-.418.409-1.077.576-.863.223-1.198.464-1.198.892 0 .492.335.761.947.761Zm3.973.539h-.725v-4.922h.706v.455h.019c.297-.353.854-.594 1.383-.594 1.142 0 1.867.733 1.867 1.876v3.185h-.725v-3.093c0-.798-.464-1.29-1.226-1.29-.78 0-1.3.529-1.3 1.29v3.093Zm6.116.139c-1.096 0-1.736-.678-1.736-1.867v-3.194h.724v3.092c0 .873.39 1.291 1.225 1.291.753 0 1.235-.52 1.235-1.291v-3.092h.725v4.922h-.706v-.455h-.019c-.306.362-.854.594-1.448.594Zm4.121 1.95h-.724v-7.011h.724v.52h.019c.316-.39.836-.659 1.44-.659 1.3 0 2.219 1.058 2.219 2.6 0 1.541-.92 2.6-2.201 2.6-.613 0-1.152-.26-1.458-.632h-.019v2.582Zm1.421-2.628c.929 0 1.532-.761 1.532-1.922s-.603-1.922-1.495-1.922c-.817 0-1.458.64-1.458 1.439v.956c0 .808.641 1.449 1.421 1.449Z"/><path fill="#0F0F0F" fill-opacity=".05" d="M9.571 472.429c0-6.628 5.373-12 12-12h159c6.628 0 12 5.372 12 12V477c0 6.627-5.372 12-12 12h-159c-6.627 0-12-5.373-12-12v-4.571Z"/><path fill="#FF3C00" fill-rule="evenodd" d="m18.143 474 2.247-2.247 2.143 2.142.505-.505-2.143-2.143L23.143 469h-5v5Zm.714-4.286v2.562l2.561-2.562h-2.561Zm4.286 10.715-2.248-2.248 2.143-2.143-.505-.505-2.143 2.143-2.247-2.247v5h5Zm-4.286-.715h2.561l-2.561-2.561v2.561Zm7.962-8.467L24.57 469h5v5l-2.247-2.247-2.143 2.142-.505-.505 2.143-2.143Zm-.523-1.533h2.56v2.562l-2.56-2.562Zm3.275 5.715-2.247 2.247-2.143-2.143-.505.505 2.143 2.143-2.248 2.248h5v-5Zm-.714 4.285v-2.561l-2.561 2.561h2.56Z" clip-rule="evenodd"/><path fill="#0F0F0F" d="M38.35 477.354c-1.495 0-2.312-.808-2.312-2.257v-4.383h.761v4.327c0 1.05.53 1.588 1.55 1.588 1.032 0 1.57-.548 1.57-1.569v-4.346h.77v4.383c0 1.449-.835 2.257-2.34 2.257Zm4.42 1.95h-.723v-7.011h.724v.52h.018c.316-.39.836-.659 1.44-.659 1.3 0 2.22 1.058 2.22 2.6 0 1.541-.92 2.6-2.202 2.6-.612 0-1.151-.26-1.458-.632h-.018v2.582Zm1.422-2.628c.928 0 1.532-.762 1.532-1.922 0-1.161-.604-1.923-1.495-1.923a1.44 1.44 0 0 0-1.458 1.44v.956c0 .808.64 1.449 1.42 1.449Zm5.108.678c-1.272 0-2.07-.66-2.182-1.82l.706-.13c.148.9.576 1.272 1.476 1.272.669 0 1.087-.335 1.087-.78 0-.39-.297-.604-1.356-.92-1.235-.371-1.68-.724-1.68-1.411 0-.78.714-1.411 1.67-1.411 1.032 0 1.765.566 1.95 1.467l-.705.158c-.167-.623-.576-.948-1.244-.948-.548 0-.947.325-.947.706 0 .344.297.52 1.197.799 1.375.427 1.848.817 1.848 1.56 0 .845-.724 1.458-1.82 1.458Zm4.847 0c-1.346 0-2.275-1.05-2.275-2.6 0-1.551.929-2.6 2.275-2.6 1.133 0 1.96.696 2.145 1.792l-.706.148c-.139-.808-.668-1.263-1.439-1.263-.928 0-1.55.762-1.55 1.923 0 1.16.621 1.922 1.55 1.922.77 0 1.3-.455 1.44-1.263l.705.148c-.186 1.096-1.012 1.793-2.145 1.793Zm4.482 0c-.993 0-1.615-.539-1.615-1.393 0-.836.492-1.263 1.727-1.56.947-.232 1.253-.437 1.253-.836 0-.455-.399-.752-1.012-.752-.65 0-1.105.399-1.235 1.058l-.733-.139c.167-.966.938-1.578 1.968-1.578 1.105 0 1.774.612 1.774 1.597v3.463h-.678v-.52h-.019c-.297.409-.835.66-1.43.66Zm.056-.678c.79 0 1.347-.474 1.347-1.124v-1.105h-.019c-.102.242-.418.409-1.077.576-.864.223-1.198.464-1.198.891 0 .492.334.762.947.762Zm3.972.538h-.724v-6.778h.724v6.778Zm3.306.14c-1.365 0-2.275-1.05-2.275-2.6 0-1.551.92-2.6 2.275-2.6 1.328 0 2.2.984 2.2 2.442v.371h-3.742c.019.938.613 1.727 1.523 1.727.697 0 1.087-.26 1.504-.984l.604.362c-.427.845-1.142 1.282-2.09 1.282Zm-1.523-2.972h2.99c-.028-.882-.594-1.569-1.467-1.569-.854 0-1.504.743-1.523 1.569Z"/><path fill="#0F0F0F" fill-opacity=".05" d="M9.571 506.714c0-6.627 5.373-12 12-12h159c6.628 0 12 5.373 12 12v4.572c0 6.627-5.372 12-12 12h-159c-6.627 0-12-5.373-12-12v-4.572Z"/></g><path fill="#0F0F0F" fill-opacity=".1" d="M1 0h200H1Zm200 500H1h200ZM9.571 500a9.286 9.286 0 0 1-9.285-9.286V9.286A9.286 9.286 0 0 1 9.57 0C5.232 0 1.714 3.838 1.714 8.571V491.43c0 4.733 3.518 8.571 7.857 8.571ZM201 0v500V0Z" mask="url(#f)"/><defs><clipPath id="a"><path fill="#fff" d="M1 8.571A8.571 8.571 0 0 1 9.571 0H192.43A8.572 8.572 0 0 1 201 8.571V491.43a8.572 8.572 0 0 1-8.571 8.571H9.571A8.572 8.572 0 0 1 1 491.429V8.571Z"/></clipPath><clipPath id="b"><path fill="#fff" d="M1 0h200v24.429H1V0Z"/></clipPath></defs></svg>